<svg width="40" height="40" viewBox="0 0 40 40" fill="none" xmlns="http://www.w3.org/2000/svg">
<mask id="mask0_281_6785" style="mask-type:alpha" maskUnits="userSpaceOnUse" x="0" y="0" width="40" height="40">
<rect width="40" height="40" fill="#D9D9D9"/>
</mask>
<g mask="url(#mask0_281_6785)">
<path d="M3.75 36.0418V6.8335C3.75 5.97405 4.05597 5.23836 4.66792 4.62641C5.27986 4.01447 6.01556 3.7085 6.875 3.7085H33.125C33.9844 3.7085 34.7201 4.01447 35.3321 4.62641C35.944 5.23836 36.25 5.97405 36.25 6.8335V26.5002C36.25 27.3596 35.944 28.0953 35.3321 28.7072C34.7201 29.3192 33.9844 29.6252 33.125 29.6252H10.1667L3.75 36.0418ZM8.85417 26.5002H33.125V6.8335H6.875V28.4585L8.85417 26.5002Z" fill="white"/>
</g>
</svg>
