<?xml version="1.0" encoding="utf-8"?>
<!-- Generator: Adobe Illustrator 26.4.0, SVG Export Plug-In . SVG Version: 6.00 Build 0)  -->
<svg version="1.1" id="Calque_1" xmlns="http://www.w3.org/2000/svg" xmlns:xlink="http://www.w3.org/1999/xlink" x="0px" y="0px"
	 viewBox="0 0 314 512" style="enable-background:new 0 0 314 512;" xml:space="preserve">
<style type="text/css">
	.st0{fill:none;}
	.st1{fill:#000000;}
    @keyframes heart_one {
      0% {
        opacity: 0;
        transform: scale(0.5);
      }
      33% {
        opacity: 1;
        transform: scale(1);
      }
      100% {
        opacity: 0;
        transform: scale(0.5);
      }
    }
    @keyframes heart_two {
      0% {
        opacity: 0;
        transform: scale(0.5);
      }
      66% {
        opacity: 1;
        transform: scale(1);
      }
      100% {
        opacity: 0;
        transform: scale(0.5);
      }
    }
    #arrowone {
      transform-origin: center;
      animation: heart_one 2s ease infinite;
    }
    #arrowtwo {
      transform-origin: center;
      animation: heart_two 2s ease infinite;
    }
</style>
<rect id="rectangle" class="st0" width="314" height="512"/>
<path id="arrowone" class="st1" d="M245.6,71.4H68.4c-11.7,0-18.5,13.2-11.6,22.7l93.9,130.1h0c1.4,2,3.7,3.4,6.3,3.4s5-1.3,6.3-3.4
	h0l93.9-130.1C264.1,84.6,257.3,71.4,245.6,71.4z"/>
<path id="arrowtwo" class="st1" d="M245.6,284.4H68.4c-11.7,0-18.5,13.2-11.6,22.7l93.9,130.1h0c1.4,2,3.7,3.4,6.3,3.4
	s5-1.3,6.3-3.4h0l93.9-130.1C264.1,297.6,257.3,284.4,245.6,284.4z"/>
</svg>
