<svg width="100" height="100" viewBox="0 0 100 100" fill="none" xmlns="http://www.w3.org/2000/svg">
<path d="M34.1736 63.2309L49.7324 52.1485C49.7324 52.1485 64.9833 24.6041 77.5276 20.323" stroke="#BE1622" stroke-width="4" stroke-miterlimit="10" stroke-linecap="round"/>
<path d="M61.823 25.5413V34.0065H69.7807" stroke="#BE1622" stroke-width="4" stroke-miterlimit="10" stroke-linecap="round"/>
<path d="M68.9705 26.0582L70.5912 18.7561" stroke="#BE1622" stroke-width="4" stroke-miterlimit="10" stroke-linecap="round"/>
<path d="M67.3496 27.6575H75.8259" stroke="#BE1622" stroke-width="4" stroke-miterlimit="10" stroke-linecap="round"/>
<path d="M54.303 44.6203C54.303 44.6203 46.8477 11.2762 85.4693 14.0226C87.0252 14.1357 88.1272 15.6058 87.7383 17.1082C85.9393 24.2326 78.954 42.5687 54.2868 44.6203H54.303Z" stroke="#BE1622" stroke-width="4" stroke-miterlimit="10" stroke-linecap="round"/>
<path d="M65.9234 62.714L50.3645 51.6316C50.3645 51.6316 35.1136 24.0872 22.5693 19.8223" stroke="#BE1622" stroke-width="4" stroke-miterlimit="10" stroke-linecap="round"/>
<path d="M38.2741 25.0242V33.4894H30.3164" stroke="#BE1622" stroke-width="4" stroke-miterlimit="10" stroke-linecap="round"/>
<path d="M31.1268 25.5411L29.5061 18.239" stroke="#BE1622" stroke-width="4" stroke-miterlimit="10" stroke-linecap="round"/>
<path d="M32.7476 27.1406H24.2712" stroke="#BE1622" stroke-width="4" stroke-miterlimit="10" stroke-linecap="round"/>
<path d="M45.7941 44.1194C45.7941 44.1194 53.2494 10.7592 14.6278 13.5217C13.072 13.6348 11.9699 15.1049 12.3589 16.6073C14.1578 23.7317 21.1431 42.0677 45.8103 44.1194" stroke="#BE1622" stroke-width="4" stroke-miterlimit="10" stroke-linecap="round"/>
<path d="M95.6959 96.7691C95.6959 96.7691 91.3038 65.0082 62.5848 62.7142C62.5848 62.7142 57.9819 61.8256 44.2545 68.013C44.2545 68.013 27.2046 59.7578 24.2711 64.4104C21.3377 69.0631 35.8106 76.139 35.8106 76.139L56.5071 80.3878" stroke="black" stroke-width="4" stroke-miterlimit="10" stroke-linecap="round"/>
<path d="M81.3364 95.6057H53.7195" stroke="black" stroke-width="4" stroke-miterlimit="10" stroke-linecap="round"/>
<path d="M69.7806 95.6059L66.7175 88.1261H38.274L10.6409 72.4879C9.61983 71.9064 8.56637 71.4055 7.51291 70.9047C5.73013 70.0808 2.6994 68.1422 4.40114 65.0404C6.73497 60.7916 11.7754 63.2149 11.7754 63.2149L25.0004 68.4007" stroke="black" stroke-width="4" stroke-miterlimit="10" stroke-linecap="round"/>
<path d="M4.5634 58.7885C4.5634 58.7885 1.11128 40.0001 8.03172 29.7739" stroke="black" stroke-width="4" stroke-miterlimit="10" stroke-linecap="round"/>
<path d="M27.8042 8.70752C27.8042 8.70752 48.8897 -3.60266 72.2765 8.70752" stroke="black" stroke-width="4" stroke-miterlimit="10" stroke-linecap="round"/>
<path d="M89.4075 24.2974C89.4075 24.2974 103.735 48.7562 91.0606 69.7739" stroke="black" stroke-width="4" stroke-miterlimit="10" stroke-linecap="round"/>
</svg>
