<?xml version="1.0" encoding="UTF-8"?>
<svg id="Calque_2" data-name="Calque 2" xmlns="http://www.w3.org/2000/svg" viewBox="0 0 65.94 58.17">

  <g id="Calque_1-2" data-name="Calque 1">
    <path d="M41.56.62S-3,4.4.16,21.17c.45,2.37,2.16,4.26,4.49,4.89,2.9.78,7.44.53,12.74-4.98C26.6,11.51,26.42,8.94,41.56.62Z"/>
    <path d="M47.14,0s-20.45,9.74-28.24,29.84,1.86,28.51,7.7,28.33,16.73-2.83,12.57-26.83S47.14,0,47.14,0Z"/>
    <path d="M50.77.62s-5.45,29.66,1.6,40.94c3.79,6.07,13.22,3.83,13.56-3.32.1-2.03-.37-4.56-1.78-7.69-5.49-12.13-8.41-7.7-13.37-29.93Z"/>
  </g>

</svg>