<svg width="1167" height="241" viewBox="0 0 1167 241" fill="none" xmlns="http://www.w3.org/2000/svg">
<path d="M774.728 132.201H809C808.94 145.228 806.294 157.169 801.136 168.144C794.813 181.552 785.704 190.752 774.728 197.342V132.201Z" fill="#BE1622"/>
<path d="M750.677 197.342C740.374 191.293 731.796 182.987 725.149 171.634C717.655 158.83 714.322 142.799 714 132.201H750.677V197.342Z" fill="#BE1622"/>
<path d="M774.728 50C776.844 50.3129 778.881 50.5493 780.901 50.9226C787.875 52.2485 794.695 54.2838 801.378 57.1978C803.614 58.1598 805.768 59.3095 807.962 60.3458C808.549 60.6193 808.767 61.0459 808.785 61.8572C808.825 75.0659 808.922 88.2607 809 101.469C809 101.868 808.962 102.269 808.942 102.733H774.728V50Z" fill="#BE1622"/>
<path d="M750.677 50V102.733H714.101C714.06 102.381 714 102.081 714 101.778C714.121 88.663 714.263 75.5176 714.343 62.3886C714.343 61.2079 714.643 60.6444 715.528 60.2042C723.11 56.5273 730.893 53.8657 738.876 52.0329C742.172 51.2808 745.49 50.7405 748.808 50.1374C749.392 50.0233 749.974 50.0489 750.677 50Z" fill="#BE1622"/>
<path d="M78.9262 157.897C78.9262 162.619 78.8748 166.361 78.7767 169.131C78.674 171.901 78.5245 174.209 78.3283 176.056C78.1274 177.903 77.7771 179.394 77.2819 180.519C76.7821 181.649 76.2355 182.727 75.6376 183.751C74.4418 185.805 72.8956 187.291 71.0037 188.214C69.1071 189.137 66.1689 189.599 62.1843 189.599C54.2104 189.599 49.427 187.343 47.8341 182.828C47.4323 181.394 47.0866 179.702 46.7877 177.749C46.4887 175.801 46.2365 172.622 46.0403 168.208C45.8394 163.797 45.6899 157.642 45.5918 149.74C45.4891 141.843 45.4424 131.225 45.4424 117.884C45.4424 105.37 45.4891 95.2131 45.5918 87.4126C45.6899 79.6168 45.8394 73.5139 46.0403 69.099C46.2365 64.6889 46.5354 61.4042 46.9372 59.2497C47.3343 57.0952 47.7313 55.2003 48.133 53.5556C48.9271 51.5068 50.2725 50.016 52.169 49.0926C54.0609 48.1692 56.9992 47.7075 60.9884 47.7075C69.3594 47.7075 73.9419 49.6601 74.7407 53.5556C75.1378 55.2003 75.5348 57.2491 75.9366 59.7114C76.3336 62.1737 76.5345 65.973 76.5345 71.0996V73.1003C76.5345 73.8217 76.4317 74.4853 76.2355 75.1009H119.884C120.08 73.0522 120.183 71.2535 120.183 69.7146V63.0971C120.183 48.9387 118.884 37.5505 116.297 28.9323C112.905 18.4674 107.029 11.0324 98.6578 6.61749C90.2868 2.20746 77.8285 0 61.2874 0C46.9372 0 35.9737 1.33695 28.4015 4.00127C20.8246 6.67042 15.0462 11.4941 11.0616 18.4674C9.06697 21.9589 7.37128 25.7534 5.97925 29.8557C4.58253 33.9628 3.43806 39.604 2.54115 46.7842C1.64428 53.9691 0.994982 63.2029 0.597892 74.4853C0.196149 85.7726 0 100.446 0 118.499C0 137.38 0.196149 152.664 0.597892 164.36C0.994982 176.056 1.64428 185.598 2.54115 192.985C3.43806 200.372 4.58253 206.172 5.97925 210.375C7.37128 214.583 9.06697 218.43 11.0616 221.917C15.0462 229.102 20.7779 234.075 28.252 236.845C35.726 239.615 46.7363 241 61.2874 241C68.4625 241 74.7407 240.692 80.122 240.077C85.5034 239.461 90.1841 238.384 94.1733 236.845C98.1579 235.306 101.498 233.358 104.189 230.997C106.879 228.64 109.22 225.611 111.214 221.917C113.008 218.839 114.549 215.559 115.848 212.068C117.142 208.581 118.24 204.065 119.137 198.525C120.034 192.985 120.678 186.011 121.08 177.595C121.477 169.184 121.678 158.618 121.678 145.893C121.678 135.019 121.627 125.684 121.528 117.884C121.426 110.088 121.276 104.139 121.08 100.032H57.1019V146.816H78.9262V157.897ZM264.28 236.999V235.46C263.682 233.82 263.234 232.074 262.935 230.227C262.636 228.381 262.234 225.716 261.739 222.225C261.239 218.738 260.693 214.121 260.095 208.374C259.497 202.632 258.6 195.038 257.404 185.598C255.806 172.055 254.162 161.542 252.471 154.049C250.775 146.561 249.131 140.968 247.538 137.275C246.539 134.403 245.394 132.35 244.1 131.119C242.802 129.888 241.559 128.762 240.363 127.733V125.886C243.549 124.04 246.342 122.145 248.734 120.192C251.126 118.244 253.167 115.32 254.863 111.42C256.554 107.525 257.801 102.138 258.6 95.2612C259.394 88.3888 259.796 78.9002 259.796 66.7906C259.796 55.5081 259.048 45.9137 257.554 38.0121C256.059 30.1154 253.368 23.6518 249.481 18.6213C245.595 13.5957 240.363 9.9022 233.786 7.54088C227.209 5.18436 218.838 4.00127 208.673 4.00127H140.211V236.999H187.148V146.201H194.323C195.715 146.201 197.014 146.46 198.209 146.97C199.405 147.485 200.4 148.615 201.199 150.356C201.993 152.101 202.694 154.617 203.292 157.897C203.89 161.181 204.488 165.49 205.085 170.824C206.478 184.367 207.673 195.038 208.673 202.834C209.668 210.635 210.467 216.737 211.065 221.148C211.663 225.562 212.209 228.842 212.709 230.997C213.204 233.151 213.755 235.152 214.353 236.999H264.28ZM187.148 102.802V52.0166H199.106C203.689 52.0166 207.029 53.5556 209.122 56.6335C211.214 59.7114 212.261 65.8672 212.261 75.1009C212.261 85.9794 211.364 93.3134 209.57 97.1079C207.776 100.907 204.684 102.802 200.302 102.802H187.148ZM400.006 236.999L377.285 4.00127H298.359L274.143 236.999H321.379L324.967 183.135H347.688L351.574 236.999H400.006ZM345.595 136.043H327.06L334.534 52.6322H337.822L345.595 136.043ZM538.424 236.999V4.00127H495.373V84.9502H493.579L461.889 4.00127H415.849V236.999H458.601V112.036H460.395L513.909 236.999H538.424ZM623.626 236.999C630.801 236.999 637.079 236.691 642.46 236.075C647.842 235.46 652.522 234.435 656.512 232.997C660.496 231.564 663.883 229.665 666.676 227.303C669.465 224.947 671.857 222.023 673.851 218.531C675.841 215.251 677.486 211.558 678.784 207.451C680.078 203.349 681.176 197.808 682.073 190.83C682.97 183.857 683.614 174.777 684.016 163.591C684.413 152.409 684.614 137.996 684.614 120.346C684.614 102.701 684.413 88.3359 684.016 77.2554C683.614 66.175 682.97 57.148 682.073 50.1699C681.176 43.1965 680.078 37.7044 678.784 33.7031C677.486 29.7018 675.841 25.9602 673.851 22.4687C669.862 15.6973 664.084 10.9266 656.512 8.15648C648.935 5.38635 637.976 4.00127 623.626 4.00127H560.544V236.999H623.626ZM607.482 185.598V52.94H622.43C626.214 52.94 628.904 53.3536 630.502 54.1711C632.095 54.9935 633.29 56.2247 634.089 57.8647C634.486 59.3026 634.883 61.0483 635.285 63.0971C635.682 65.1506 635.981 68.3295 636.182 72.6386C636.378 76.9476 636.528 82.8486 636.63 90.3365C636.729 97.8293 636.78 107.525 636.78 119.423C636.78 131.326 636.729 140.92 636.63 148.201C636.528 155.487 636.378 161.282 636.182 165.591C635.981 169.9 635.682 173.031 635.285 174.979C634.883 176.932 634.486 178.624 634.089 180.058C633.29 182.111 632.095 183.549 630.502 184.367C628.904 185.189 626.214 185.598 622.43 185.598H607.482ZM887.475 236.999V166.822H908.402C918.567 166.822 926.938 165.389 933.515 162.513C940.092 159.642 945.324 154.924 949.211 148.355C953.097 141.79 955.788 133.225 957.282 122.655C958.777 112.089 959.525 99.2144 959.525 84.0268C959.525 69.0509 958.777 56.4796 957.282 46.3225C955.788 36.1654 953.097 27.9609 949.211 21.6993C945.324 15.4424 940.092 10.9266 933.515 8.15648C926.938 5.38635 918.567 4.00127 908.402 4.00127H840.537V236.999H887.475ZM887.475 118.807V52.6322H898.835C903.418 52.6322 906.758 54.5847 908.851 58.4802C910.943 62.3805 911.99 70.484 911.99 82.7957C911.99 96.752 911.093 106.241 909.299 111.266C907.505 116.297 904.413 118.807 900.031 118.807H887.475ZM1026.19 236.999V4.00127H978.06V236.999H1026.19ZM1122.75 147.739C1122.75 152.462 1122.7 156.617 1122.6 160.205C1122.5 163.797 1122.35 166.976 1122.16 169.747C1121.95 172.517 1121.66 175.032 1121.26 177.287C1120.86 179.548 1120.26 181.702 1119.46 183.751C1118.27 187.242 1114.68 188.983 1108.7 188.983C1104.11 188.983 1100.93 188.575 1099.14 187.752C1097.34 186.935 1096.15 185.497 1095.55 183.443C1094.95 181.803 1094.5 179.856 1094.2 177.595C1093.9 175.34 1093.6 171.954 1093.31 167.438C1093.01 162.927 1092.81 156.771 1092.71 148.971C1092.6 141.175 1092.56 130.811 1092.56 117.884C1092.56 105.37 1092.6 95.2131 1092.71 87.4126C1092.81 79.6168 1093.01 73.5139 1093.31 69.099C1093.6 64.6889 1093.9 61.4042 1094.2 59.2497C1094.5 57.0952 1094.95 55.2003 1095.55 53.5556C1096.15 51.5068 1097.29 50.016 1098.99 49.0926C1100.68 48.1692 1103.42 47.7075 1107.21 47.7075C1114.78 47.7075 1118.97 49.6601 1119.76 53.5556C1119.96 54.5847 1120.21 55.864 1120.51 57.403C1120.81 58.9419 1121.06 61.0483 1121.26 63.7127C1121.45 66.3818 1121.6 69.7675 1121.71 73.8698C1121.81 77.9768 1121.86 83.1034 1121.86 89.2593H1165.8C1166 85.3638 1166.15 81.6703 1166.25 78.1788C1166.35 74.6921 1166.4 71.5133 1166.4 68.6373C1166.4 56.3257 1165.7 45.8127 1164.31 37.0888C1162.91 28.3696 1160.12 21.2376 1155.94 15.6973C1151.75 10.1571 1145.77 6.1558 1138 3.69352C1130.23 1.23119 1119.96 0 1107.21 0C1092.86 0 1081.89 1.33695 1074.32 4.00127C1066.74 6.67042 1060.97 11.4941 1056.98 18.4674C1054.99 21.9589 1053.29 25.7534 1051.9 29.8557C1050.5 33.9628 1049.36 39.604 1048.46 46.7842C1047.56 53.9691 1046.92 63.2029 1046.52 74.4853C1046.12 85.7726 1045.92 100.446 1045.92 118.499C1045.92 136.558 1046.12 151.433 1046.52 163.129C1046.92 174.825 1047.56 184.472 1048.46 192.061C1049.36 199.655 1050.5 205.71 1051.9 210.221C1053.29 214.737 1054.99 218.637 1056.98 221.917C1060.77 229.102 1066.6 234.075 1074.47 236.845C1082.34 239.615 1093.75 241 1108.7 241C1121.26 241 1131.37 239.562 1139.05 236.691C1146.72 233.82 1152.65 229.41 1156.84 223.456C1161.02 217.507 1163.76 209.966 1165.06 200.833C1166.35 191.705 1167 180.981 1167 168.669C1167 162.105 1166.7 155.126 1166.1 147.739H1122.75Z" fill="black"/>
</svg>
