<svg width="88" height="100" viewBox="0 0 88 100" fill="none" xmlns="http://www.w3.org/2000/svg">
<g clip-path="url(#clip0_446_1945)">
<path d="M7.26134 42.4685C7.26134 42.4685 6.46428 69.2734 14.3437 69.1374C22.2232 69.0014 39.7015 54.1199 40.5441 45.7214" stroke="black" stroke-width="4" stroke-miterlimit="10" stroke-linecap="round"/>
<path d="M48.5149 44.1233C48.5149 44.1233 59.7648 74.1018 74.6241 69.9762C87.7186 66.3266 81.5243 43.908 81.5243 43.908" stroke="black" stroke-width="4" stroke-miterlimit="10" stroke-linecap="round"/>
<path d="M36.1717 10.5407C36.1717 10.5407 8.70752 11.5267 2.93457 42.922C2.93457 42.922 20.5381 42.3666 31.6627 31.2819C31.6627 31.2819 36.7297 44.7354 44.0512 48.2489C44.0512 48.2489 55.3124 39.0004 57.8516 30.5905C57.8516 30.5905 68.8396 44.6107 85.3158 44.044C85.3158 44.044 82.4578 13.0682 47.5468 9.41861V2.26685" stroke="#BE1622" stroke-width="4" stroke-miterlimit="10" stroke-linecap="round"/>
<path d="M30.6833 59.991C30.6833 59.991 38.2895 75.0199 44.1308 75.0199C49.9721 75.0199 58.5461 62.0878 58.5461 62.0878" stroke="black" stroke-width="4" stroke-miterlimit="10" stroke-linecap="round"/>
<path d="M16.7463 68.7407C16.7463 68.7407 21.1074 87.9179 27.8709 88.4846C34.6345 89.0513 40.5555 73.501 40.5555 73.501" stroke="black" stroke-width="4" stroke-miterlimit="10" stroke-linecap="round"/>
<path d="M48.5146 73.2403C48.5146 73.2403 54.7658 87.9405 60.2541 88.4959C65.7424 89.0512 72.3693 71.0981 72.3693 71.0981" stroke="black" stroke-width="4" stroke-miterlimit="10" stroke-linecap="round"/>
<path d="M33.3137 85.7759C33.3137 85.7759 39.1322 98.0053 44.1309 97.7333C49.1296 97.4612 56.5877 86.3766 56.5877 86.3766" stroke="black" stroke-width="4" stroke-miterlimit="10" stroke-linecap="round"/>
</g>
<defs>
<clipPath id="clip0_446_1945">
<rect width="87.619" height="100" fill="white" transform="translate(0.19043)"/>
</clipPath>
</defs>
</svg>
