<svg width="200" height="234" viewBox="0 0 200 234" fill="none" xmlns="http://www.w3.org/2000/svg">
<path d="M134.25 0.125C177.896 1.89583 199.719 7.10417 199.719 15.75V16.0625L199.094 24.0312V69.1875C178.781 89.3958 150.396 106.219 113.938 119.656L113.781 122.312L116.281 124.969C115.969 130.281 109.562 133.823 97.0625 135.594L96.9062 138.25H104.875L107.688 135.594L110.188 138.25L113 135.594L112.219 146.219L90.8125 151.531L90.9688 148.875L82.8438 151.531C68.7812 148.302 61.8542 144.76 62.0625 140.906C67.6875 136.74 70.8646 127.885 71.5938 114.344L83 103.719H80.3438L72.0625 109.031L72.375 101.062C91.6458 83.3542 106.385 74.5 116.594 74.5L116.438 77.1562C116.229 80.0729 110.708 83.6146 99.875 87.7812L80.3438 101.062H85.6562C109.927 94.7083 136.49 80.5417 165.344 58.5625H168L168.156 53.25H165.5L149.25 61.2188L149.406 55.9062H154.719L155.188 50.5938H128.625L88.4688 53.25C88.0521 61.7917 74.4062 68.875 47.5312 74.5L27.8438 93.0938H25.1875L25.6562 82.4688H28.3125L30.8125 85.125H33.4688L33.625 82.4688L31.2812 79.8125L34.0938 77.1562H31.4375C22.2708 81.3229 17.5312 86.6354 17.2188 93.0938C6.59375 93.0938 1.54167 88.6667 2.0625 79.8125L7.6875 74.5C2.6875 74.5 0.1875 72.1562 0.1875 67.4688V66.5312L3.9375 47.9375L1.4375 45.2812C5.70833 41.7396 11.9583 39.9688 20.1875 39.9688C21.5417 17.8854 58.6771 4.60417 131.594 0.125H134.25ZM44.875 26.6875H47.5312C75.0312 16.0625 102.792 10.75 130.812 10.75C157.688 10.75 177.896 14.2917 191.438 21.375L191.75 16.0625C176.542 10.75 158.99 8.09375 139.094 8.09375H131.125C92.1667 8.09375 63.4167 14.2917 44.875 26.6875ZM126.906 34.6562L126.75 37.3125H142.688L142.844 34.6562H126.906ZM145.5 34.6562L145.344 37.3125H155.969L156.125 34.6562H145.5ZM112.375 53.25H115.031L114.875 55.9062L104.25 58.5625C104.354 55.0208 107.062 53.25 112.375 53.25ZM112.062 106.375L111.906 109.031H119.875C136.438 98.4062 147.375 93.0938 152.688 93.0938L152.844 90.4375H147.531L112.062 106.375ZM57.375 130.281H60.0312L53.9375 143.562H45.9688L46.5938 135.594L57.375 130.281ZM116.438 167.469L118.781 170.125L118.625 172.781L102.531 175.438V178.094H123.781L123.625 180.75H118.312L118.156 183.406H123.469L123.156 186.062C106.385 200.333 97.9479 209.188 97.8438 212.625H103.156C102.219 226.792 90.2396 233.875 67.2188 233.875L59.4062 231.219L60.0312 223.25C65.3438 223.25 68.0521 221.479 68.1562 217.938L58 212.625L64.4062 194.031L59.25 188.719C59.7708 179.969 78.8333 172.885 116.438 167.469Z" fill="white"/>
</svg>
