<svg width="246" height="100" viewBox="0 0 246 100" fill="none" xmlns="http://www.w3.org/2000/svg">
<path d="M30.6577 57.8823C30.6577 58.6738 30.6488 59.3009 30.6317 59.7651C30.6138 60.2294 30.5878 60.6163 30.5537 60.9258C30.5188 61.2353 30.4579 61.4851 30.3718 61.6737C30.2849 61.8632 30.1898 62.0437 30.0858 62.2154C29.8779 62.5595 29.609 62.8086 29.2801 62.9634C28.9503 63.1181 28.4394 63.1955 27.7465 63.1955C26.36 63.1955 25.5282 62.8175 25.2512 62.0606C25.1814 61.8204 25.1213 61.5367 25.0693 61.2095C25.0173 60.8831 24.9734 60.3503 24.9393 59.6104C24.9044 58.8713 24.8784 57.8396 24.8613 56.5153C24.8435 55.1919 24.8353 53.4122 24.8353 51.1763C24.8353 49.0791 24.8435 47.3768 24.8613 46.0695C24.8784 44.763 24.9044 43.7401 24.9393 43.0002C24.9734 42.2611 25.0254 41.7106 25.0953 41.3495C25.1643 40.9884 25.2334 40.6709 25.3032 40.3952C25.4413 40.0519 25.6752 39.802 26.005 39.6473C26.334 39.4925 26.8449 39.4151 27.5386 39.4151C28.9942 39.4151 29.791 39.7424 29.9299 40.3952C29.9989 40.6709 30.068 41.0142 30.1378 41.4269C30.2069 41.8396 30.2418 42.4763 30.2418 43.3355V43.6708C30.2418 43.7917 30.2239 43.903 30.1898 44.0061H37.7797C37.8138 43.6628 37.8316 43.3613 37.8316 43.1034V41.9943C37.8316 39.6215 37.6058 37.7128 37.1558 36.2685C36.5661 34.5146 35.5443 33.2685 34.0887 32.5286C32.6331 31.7895 30.4668 31.4196 27.5906 31.4196C25.0953 31.4196 23.1889 31.6436 21.8722 32.0901C20.5547 32.5375 19.5499 33.3459 18.857 34.5146C18.5102 35.0998 18.2153 35.7357 17.9733 36.4232C17.7304 37.1116 17.5314 38.057 17.3755 39.2604C17.2195 40.4645 17.1066 42.0121 17.0376 43.903C16.9677 45.7947 16.9336 48.2538 16.9336 51.2795C16.9336 54.4439 16.9677 57.0054 17.0376 58.9656C17.1066 60.9258 17.2195 62.5249 17.3755 63.7629C17.5314 65.0009 17.7304 65.973 17.9733 66.6774C18.2153 67.3827 18.5102 68.0275 18.857 68.6118C19.5499 69.816 20.5466 70.6494 21.8462 71.1137C23.1458 71.5779 25.0603 71.8101 27.5906 71.8101C28.8382 71.8101 29.9299 71.7585 30.8656 71.6553C31.8014 71.5521 32.6153 71.3716 33.3089 71.1137C34.0018 70.8557 34.5826 70.5293 35.0504 70.1336C35.5183 69.7386 35.9252 69.2308 36.2721 68.6118C36.584 68.096 36.852 67.5463 37.0779 66.9611C37.3029 66.3768 37.4937 65.6199 37.6497 64.6914C37.8057 63.7629 37.9177 62.5942 37.9876 61.1837C38.0566 59.774 38.0916 58.0032 38.0916 55.8705C38.0916 54.0481 38.0826 52.4837 38.0656 51.1763C38.0477 49.8698 38.0217 48.8728 37.9876 48.1845H26.8628V56.0253H30.6577V57.8823ZM62.888 71.1395V70.8815C62.784 70.6067 62.706 70.3141 62.6541 70.0046C62.6021 69.6951 62.5322 69.2486 62.4461 68.6634C62.3592 68.0791 62.2642 67.3053 62.1602 66.3421C62.0562 65.3798 61.9003 64.1071 61.6923 62.5249C61.4145 60.2552 61.1286 58.4933 60.8346 57.2375C60.5397 55.9825 60.2538 55.0452 59.9768 54.4262C59.803 53.945 59.604 53.6008 59.379 53.3945C59.1532 53.1881 58.9371 52.9995 58.7292 52.827V52.5175C59.2831 52.208 59.7689 51.8905 60.1848 51.5632C60.6006 51.2368 60.9556 50.7467 61.2505 50.0931C61.5445 49.4402 61.7614 48.5375 61.9003 47.3849C62.0384 46.2331 62.1082 44.6429 62.1082 42.6134C62.1082 40.7225 61.9782 39.1145 61.7183 37.7902C61.4584 36.4668 60.9905 35.3835 60.3147 34.5404C59.6389 33.6981 58.7292 33.0791 57.5855 32.6834C56.4418 32.2884 54.9862 32.0901 53.2187 32.0901H41.3141V71.1395H49.4758V55.9221H50.7234C50.9655 55.9221 51.1913 55.9656 51.3993 56.0511C51.6072 56.1373 51.7802 56.3267 51.9191 56.6185C52.0572 56.9111 52.179 57.3326 52.283 57.8823C52.387 58.4328 52.4909 59.155 52.5949 60.0488C52.837 62.3186 53.0449 64.1071 53.2187 65.4136C53.3918 66.7209 53.5307 67.7438 53.6346 68.4829C53.7386 69.2228 53.8336 69.7725 53.9205 70.1336C54.0066 70.4947 54.1025 70.83 54.2065 71.1395H62.888ZM49.4758 48.6487V40.1373H51.5552C52.3521 40.1373 52.9328 40.3952 53.2967 40.9111C53.6606 41.4269 53.8426 42.4586 53.8426 44.0061C53.8426 45.8293 53.6866 47.0585 53.3747 47.6944C53.0628 48.3311 52.5251 48.6487 51.7632 48.6487H49.4758ZM86.4888 71.1395L82.5379 32.0901H68.8138L64.603 71.1395H72.8167L73.4405 62.1122H77.3914L78.0672 71.1395H86.4888ZM77.0275 54.2198H73.8044L75.104 40.2405H75.6758L77.0275 54.2198ZM110.558 71.1395V32.0901H103.072V45.6568H102.76L97.2493 32.0901H89.2436V71.1395H96.6775V50.1962H96.9894L106.295 71.1395H110.558ZM125.373 71.1395C126.62 71.1395 127.712 71.0879 128.648 70.9847C129.584 70.8815 130.398 70.7099 131.091 70.4689C131.784 70.2287 132.373 69.9103 132.859 69.5146C133.344 69.1196 133.759 68.6296 134.106 68.0444C134.452 67.4947 134.738 66.8757 134.964 66.1874C135.189 65.4999 135.38 64.5713 135.536 63.4018C135.692 62.2331 135.804 60.7114 135.874 58.8366C135.943 56.9626 135.978 54.5471 135.978 51.589C135.978 48.6318 135.943 46.2242 135.874 44.3672C135.804 42.5102 135.692 40.9973 135.536 39.8278C135.38 38.6591 135.189 37.7386 134.964 37.068C134.738 36.3974 134.452 35.7704 134.106 35.1852C133.413 34.0504 132.408 33.2508 131.091 32.7865C129.774 32.3223 127.868 32.0901 125.373 32.0901H114.404V71.1395H125.373ZM122.566 62.5249V40.2921H125.165C125.823 40.2921 126.291 40.3614 126.568 40.4984C126.845 40.6362 127.053 40.8426 127.192 41.1174C127.261 41.3584 127.33 41.651 127.4 41.9943C127.469 42.3385 127.521 42.8713 127.556 43.5934C127.59 44.3156 127.616 45.3046 127.634 46.5595C127.651 47.8153 127.66 49.4402 127.66 51.4343C127.66 53.4291 127.651 55.0371 127.634 56.2574C127.616 57.4785 127.59 58.4497 127.556 59.1719C127.521 59.8941 127.469 60.4188 127.4 60.7452C127.33 61.0725 127.261 61.3562 127.192 61.5964C127.053 61.9405 126.845 62.1815 126.568 62.3186C126.291 62.4564 125.823 62.5249 125.165 62.5249H122.566ZM179.593 71.1395V59.3782H183.232C184.999 59.3782 186.455 59.1381 187.598 58.6561C188.742 58.1749 189.652 57.3842 190.328 56.2832C191.003 55.183 191.471 53.7475 191.731 51.9759C191.991 50.2051 192.121 48.0474 192.121 45.5021C192.121 42.9922 191.991 40.8853 191.731 39.183C191.471 37.4807 191.003 36.1057 190.328 35.0563C189.652 34.0076 188.742 33.2508 187.598 32.7865C186.455 32.3223 184.999 32.0901 183.232 32.0901H171.431V71.1395H179.593ZM179.593 51.3311V40.2405H181.568C182.365 40.2405 182.946 40.5677 183.31 41.2206C183.674 41.8742 183.855 43.2324 183.855 45.2957C183.855 47.6348 183.7 49.225 183.388 50.0673C183.076 50.9104 182.538 51.3311 181.776 51.3311H179.593ZM203.714 71.1395V32.0901H195.344V71.1395H203.714ZM220.504 56.18C220.504 56.9715 220.495 57.6679 220.478 58.2692C220.46 58.8713 220.434 59.404 220.4 59.8683C220.365 60.3326 220.313 60.7541 220.244 61.1321C220.174 61.5109 220.07 61.872 219.932 62.2154C219.724 62.8005 219.101 63.0923 218.061 63.0923C217.263 63.0923 216.709 63.0238 216.397 62.886C216.085 62.749 215.878 62.508 215.774 62.1638C215.67 61.8889 215.592 61.5625 215.54 61.1837C215.488 60.8057 215.436 60.2383 215.384 59.4814C215.332 58.7254 215.297 57.6937 215.28 56.3864C215.262 55.0798 215.254 53.3429 215.254 51.1763C215.254 49.0791 215.262 47.3768 215.28 46.0695C215.297 44.763 215.332 43.7401 215.384 43.0002C215.436 42.2611 215.488 41.7106 215.54 41.3495C215.592 40.9884 215.67 40.6709 215.774 40.3952C215.878 40.0519 216.077 39.802 216.371 39.6473C216.665 39.4925 217.142 39.4151 217.801 39.4151C219.118 39.4151 219.845 39.7424 219.984 40.3952C220.018 40.5677 220.062 40.7821 220.114 41.04C220.166 41.2979 220.209 41.651 220.244 42.0975C220.278 42.5448 220.304 43.1123 220.322 43.7998C220.339 44.4881 220.348 45.3473 220.348 46.379H227.99C228.024 45.7261 228.05 45.1071 228.068 44.522C228.085 43.9376 228.094 43.4048 228.094 42.9229C228.094 40.8595 227.972 39.0976 227.73 37.6355C227.487 36.1742 227.002 34.9789 226.275 34.0504C225.547 33.1218 224.507 32.4512 223.155 32.0386C221.804 31.6259 220.018 31.4196 217.801 31.4196C215.306 31.4196 213.399 31.6436 212.083 32.0901C210.765 32.5375 209.76 33.3459 209.067 34.5146C208.721 35.0998 208.426 35.7357 208.184 36.4232C207.941 37.1116 207.742 38.057 207.586 39.2604C207.43 40.4645 207.317 42.0121 207.248 43.903C207.178 45.7947 207.144 48.2538 207.144 51.2795C207.144 54.3061 207.178 56.799 207.248 58.7592C207.317 60.7194 207.43 62.3363 207.586 63.6082C207.742 64.8808 207.941 65.8956 208.184 66.6516C208.426 67.4085 208.721 68.0621 209.067 68.6118C209.725 69.816 210.739 70.6494 212.109 71.1137C213.477 71.5779 215.462 71.8101 218.061 71.8101C220.244 71.8101 222.003 71.5691 223.337 71.0879C224.671 70.6067 225.703 69.8676 226.431 68.8698C227.158 67.8727 227.634 66.6089 227.86 65.0783C228.085 63.5485 228.198 61.7511 228.198 59.6878C228.198 58.5876 228.146 57.418 228.042 56.18H220.504Z" fill="#1D1D1B"/>
<path d="M20.9912 25.8318C21.5142 25.8318 21.9497 25.7842 22.2973 25.6889C22.6151 25.5903 22.9015 25.4146 23.1565 25.1616C23.5802 24.7509 23.7922 24.2483 23.7922 23.6536C23.7922 23.2002 23.673 22.8027 23.4346 22.461C23.1995 22.116 22.8784 21.8746 22.4711 21.7366C22.8915 21.3588 23.1018 20.8972 23.1018 20.3518C23.1018 20.0529 23.0373 19.7572 22.9082 19.4648C22.7823 19.1757 22.6118 18.9342 22.3966 18.7403C22.1847 18.5531 21.9248 18.42 21.6169 18.3412C21.3123 18.2623 20.9034 18.2229 20.3902 18.2229H19.238V25.8318H20.9912ZM20.3952 19.2775H20.8024C21.1931 19.2775 21.491 19.3704 21.6964 19.5559C21.9016 19.7416 22.0043 20.0135 22.0043 20.3715C22.0043 20.7395 21.9041 21.0179 21.7038 21.2068C21.5035 21.3958 21.1881 21.4902 20.7577 21.4902H20.3952V19.2775ZM20.3952 22.4511H20.9812C21.6036 22.4511 22.0357 22.5612 22.2774 22.7813C22.5257 23.0048 22.6499 23.2807 22.6499 23.6092C22.6499 23.9476 22.5208 24.2269 22.2625 24.447C22.0175 24.6507 21.6334 24.7525 21.1103 24.7525H20.3952V22.4511ZM31.4715 21.845C31.7827 21.4574 31.9383 20.9941 31.9383 20.4553C31.9383 19.7654 31.69 19.2102 31.1934 18.7896C30.7431 18.4119 30.0114 18.2229 28.9983 18.2229H27.6424V25.8318H28.7996V22.7172H29.0082L31.1983 25.8318H32.6137L30.2398 22.5891C30.7497 22.4807 31.1602 22.2327 31.4715 21.845ZM28.7996 19.3021H29.2118C30.2779 19.3021 30.811 19.6914 30.811 20.4701C30.811 21.3013 30.263 21.7169 29.1671 21.7169H28.7996V19.3021ZM41.4651 25.8318H42.7315L39.0714 17.7449L35.2771 25.8318H36.5236L37.3778 23.9838H40.6606L41.4651 25.8318ZM37.8596 22.9045L39.0515 20.3173L40.1888 22.9045H37.8596ZM48.3449 18.0751C47.6893 18.0751 47.1413 18.2689 46.701 18.6566C46.2606 19.0409 46.0405 19.519 46.0405 20.0906C46.0405 20.9382 46.5652 21.5822 47.6148 22.0224L48.3548 22.3279C48.5468 22.4101 48.7124 22.4963 48.8514 22.5867C48.9905 22.6771 49.1039 22.7739 49.1916 22.8774C49.2793 22.9809 49.3439 23.0942 49.3853 23.2174C49.4267 23.3406 49.4474 23.4762 49.4474 23.624C49.4474 23.992 49.3282 24.2959 49.0898 24.5357C48.8514 24.7756 48.5517 24.8954 48.1909 24.8954C47.734 24.8954 47.3864 24.7312 47.148 24.4026C47.0155 24.2318 46.9228 23.923 46.8699 23.4762L45.6978 23.7324C45.8037 24.4421 46.0703 24.9924 46.4974 25.3833C46.9311 25.7743 47.4807 25.9697 48.1462 25.9697C48.8481 25.9697 49.4357 25.7398 49.9093 25.2798C50.3793 24.8232 50.6145 24.2449 50.6145 23.5452C50.6145 23.0228 50.4705 22.5817 50.1824 22.222C49.8944 21.8622 49.4391 21.5575 48.8167 21.3078L48.0518 20.9974C47.4956 20.7707 47.2175 20.4718 47.2175 20.1005C47.2175 19.8311 47.3234 19.6077 47.5354 19.4303C47.7472 19.2496 48.0138 19.1592 48.3349 19.1592C48.5964 19.1592 48.81 19.2118 48.9756 19.3169C49.1345 19.4089 49.3017 19.6061 49.4772 19.9083L50.4158 19.3563C49.9192 18.5022 49.2289 18.0751 48.3449 18.0751ZM56.6649 18.0751C56.0093 18.0751 55.4613 18.2689 55.021 18.6566C54.5806 19.0409 54.3605 19.519 54.3605 20.0906C54.3605 20.9382 54.8852 21.5822 55.9348 22.0224L56.6748 22.3279C56.8668 22.4101 57.0324 22.4963 57.1714 22.5867C57.3105 22.6771 57.4238 22.7739 57.5116 22.8774C57.5993 22.9809 57.6639 23.0942 57.7053 23.2174C57.7467 23.3406 57.7674 23.4762 57.7674 23.624C57.7674 23.992 57.6482 24.2959 57.4098 24.5357C57.1714 24.7756 56.8717 24.8954 56.5109 24.8954C56.054 24.8954 55.7063 24.7312 55.468 24.4026C55.3355 24.2318 55.2428 23.923 55.1898 23.4762L54.0178 23.7324C54.1237 24.4421 54.3903 24.9924 54.8174 25.3833C55.2511 25.7743 55.8007 25.9697 56.4662 25.9697C57.1681 25.9697 57.7557 25.7398 58.2292 25.2798C58.6993 24.8232 58.9345 24.2449 58.9345 23.5452C58.9345 23.0228 58.7904 22.5817 58.5024 22.222C58.2143 21.8622 57.7591 21.5575 57.1367 21.3078L56.3718 20.9974C55.8156 20.7707 55.5375 20.4718 55.5375 20.1005C55.5375 19.8311 55.6434 19.6077 55.8553 19.4303C56.0672 19.2496 56.3337 19.1592 56.6549 19.1592C56.9164 19.1592 57.13 19.2118 57.2956 19.3169C57.4545 19.4089 57.6216 19.6061 57.7972 19.9083L58.7358 19.3563C58.2392 18.5022 57.5489 18.0751 56.6649 18.0751ZM66.9515 18.2229H62.7202V25.8318H66.9515V24.7525H63.8773V22.2097H66.8621V21.1304H63.8773V19.3021H66.9515V18.2229ZM74.6904 21.845C75.0016 21.4574 75.1573 20.9941 75.1573 20.4553C75.1573 19.7654 74.9089 19.2102 74.4123 18.7896C73.962 18.4119 73.2303 18.2229 72.2172 18.2229H70.8614V25.8318H72.0185V22.7172H72.2271L74.4173 25.8318H75.8327L73.4588 22.5891C73.9686 22.4807 74.3792 22.2327 74.6904 21.845ZM72.0185 19.3021H72.4307C73.4968 19.3021 74.0299 19.6914 74.0299 20.4701C74.0299 21.3013 73.4819 21.7169 72.386 21.7169H72.0185V19.3021ZM79.375 18.2229V25.8318H80.5322V18.2229H79.375ZM88.9962 18.2229H84.7649V25.8318H88.9962V24.7525H85.922V22.2097H88.9068V21.1304H85.922V19.3021H88.9962V18.2229ZM99.3637 25.8318L100.188 21.2339L102.393 26.1816L104.663 21.2388L105.403 25.8318H106.59L105.14 17.6512L102.413 23.5649L99.7809 17.6512L98.1668 25.8318H99.3637ZM115.913 25.8318H117.179L113.519 17.7449L109.725 25.8318H110.971L111.826 23.9838H115.108L115.913 25.8318ZM112.307 22.9045L113.499 20.3173L114.637 22.9045H112.307Z" fill="#1D1D1B"/>
<path d="M120.22 18.2229V23.1213C120.22 23.923 120.472 24.5834 120.975 25.1024C121.538 25.6807 122.232 25.9697 123.056 25.9697C123.88 25.9697 124.576 25.6807 125.142 25.1024C125.645 24.5834 125.897 23.923 125.897 23.1213V18.2229H124.74V22.806C124.74 23.4696 124.632 23.9476 124.417 24.24C124.096 24.677 123.642 24.8954 123.056 24.8954C122.473 24.8954 122.021 24.677 121.7 24.24C121.485 23.9378 121.377 23.4598 121.377 22.806V18.2229H120.22ZM133.953 21.845C134.265 21.4574 134.42 20.9941 134.42 20.4553C134.42 19.7654 134.172 19.2102 133.675 18.7896C133.225 18.4118 132.493 18.2229 131.48 18.2229H130.124V25.8318H131.282V22.7172H131.49L133.68 25.8318H135.096L132.722 22.5891C133.232 22.4807 133.642 22.2327 133.953 21.845ZM131.282 19.3021H131.694C132.76 19.3021 133.293 19.6914 133.293 20.4701C133.293 21.3013 132.745 21.7169 131.649 21.7169H131.282V19.3021ZM138.638 18.2229V25.8318H139.795V18.2229H138.638ZM148.259 18.2229H144.028V25.8318H148.259V24.7525H145.185V22.2097H148.17V21.1304H145.185V19.3021H148.259V18.2229ZM153.326 25.8318V20.5046L158.918 26.295V18.2229H157.761V23.5107L152.169 17.7054V25.8318H153.326ZM164.303 25.8318V20.5046L169.895 26.295V18.2229H168.738V23.5107L163.146 17.7054V25.8318H164.303ZM179.432 25.8318H180.699L177.038 17.7449L173.244 25.8318H174.491L175.345 23.9838H178.628L179.432 25.8318ZM175.827 22.9045L177.018 20.3173L178.156 22.9045H175.827ZM184.047 18.2229V25.8318H185.204V18.2229H184.047ZM191.702 18.0751C191.046 18.0751 190.498 18.2689 190.058 18.6566C189.617 19.0409 189.397 19.519 189.397 20.0906C189.397 20.9382 189.922 21.5822 190.972 22.0224L191.712 22.3279C191.904 22.4101 192.069 22.4963 192.208 22.5867C192.347 22.6771 192.461 22.7739 192.548 22.8774C192.636 22.9809 192.701 23.0942 192.742 23.2174C192.783 23.3406 192.804 23.4762 192.804 23.624C192.804 23.992 192.685 24.2959 192.447 24.5357C192.208 24.7755 191.909 24.8954 191.548 24.8954C191.091 24.8954 190.743 24.7312 190.505 24.4026C190.372 24.2318 190.28 23.923 190.227 23.4762L189.055 23.7324C189.161 24.4421 189.427 24.9924 189.854 25.3833C190.288 25.7743 190.838 25.9697 191.503 25.9697C192.205 25.9697 192.793 25.7398 193.266 25.2798C193.736 24.8232 193.971 24.2449 193.971 23.5452C193.971 23.0228 193.827 22.5817 193.539 22.222C193.251 21.8622 192.796 21.5575 192.174 21.3078L191.409 20.9974C190.852 20.7707 190.574 20.4718 190.574 20.1005C190.574 19.8311 190.68 19.6077 190.892 19.4303C191.104 19.2496 191.371 19.1592 191.692 19.1592C191.953 19.1592 192.167 19.2118 192.332 19.3169C192.491 19.4089 192.658 19.6061 192.834 19.9083L193.773 19.3563C193.276 18.5022 192.586 18.0751 191.702 18.0751ZM201.988 18.2229H197.757V25.8318H201.988V24.7525H198.914V22.2097H201.899V21.1304H198.914V19.3021H201.988V18.2229ZM213.016 25.8318C213.794 25.8318 214.395 25.7612 214.819 25.6199C215.273 25.4786 215.706 25.2273 216.12 24.8659C216.945 24.1431 217.357 23.197 217.357 22.0273C217.357 20.8611 216.961 19.9198 216.17 19.2036C215.779 18.8488 215.344 18.5974 214.864 18.4496C214.417 18.2985 213.808 18.2229 213.036 18.2229H211.427V25.8318H213.016ZM212.584 19.3021H213.106C214.092 19.3021 214.839 19.5337 215.346 19.997C215.908 20.5161 216.19 21.1929 216.19 22.0273C216.19 22.8552 215.905 23.5271 215.336 24.0429C215.058 24.2926 214.746 24.4749 214.402 24.5899C214.058 24.6983 213.626 24.7525 213.106 24.7525H212.584V19.3021ZM221.202 18.2229V23.1213C221.202 23.923 221.454 24.5834 221.957 25.1024C222.52 25.6807 223.214 25.9697 224.038 25.9697C224.862 25.9697 225.558 25.6807 226.124 25.1024C226.627 24.5834 226.879 23.923 226.879 23.1213V18.2229H225.722V22.806C225.722 23.4696 225.614 23.9476 225.399 24.24C225.078 24.677 224.624 24.8954 224.038 24.8954C223.455 24.8954 223.003 24.677 222.682 24.24C222.467 23.9378 222.359 23.4598 222.359 22.806V18.2229H221.202Z" fill="#1D1D1B"/>
<path d="M20.073 82.3016L20.5768 79.4918L21.9243 82.5154L23.3113 79.4948L23.7635 82.3016H24.4889L23.6027 77.3024L21.9365 80.9163L20.3279 77.3024L19.3416 82.3016H20.073ZM32.4551 82.3016H33.229L30.9922 77.3596L28.6735 82.3016H29.4353L29.9573 81.1722H31.9634L32.4551 82.3016ZM30.2517 80.5127L30.9801 78.9316L31.6751 80.5127H30.2517ZM38.9281 77.5614C38.5275 77.5614 38.1926 77.6799 37.9235 77.9167C37.6544 78.1516 37.5199 78.4438 37.5199 78.7931C37.5199 79.3111 37.8405 79.7046 38.4819 79.9736L38.9342 80.1603C39.0515 80.2106 39.1527 80.2633 39.2376 80.3185C39.3226 80.3737 39.3919 80.4329 39.4455 80.4961C39.4991 80.5594 39.5386 80.6287 39.5639 80.7039C39.5892 80.7792 39.6019 80.862 39.6019 80.9524C39.6019 81.1773 39.529 81.363 39.3833 81.5095C39.2376 81.6561 39.0545 81.7294 38.834 81.7294C38.5548 81.7294 38.3423 81.629 38.1967 81.4282C38.1157 81.3239 38.059 81.1351 38.0267 80.862L37.3104 81.0187C37.3752 81.4523 37.5381 81.7886 37.7991 82.0275C38.0641 82.2665 38.4 82.3859 38.8067 82.3859C39.2356 82.3859 39.5947 82.2454 39.8841 81.9643C40.1714 81.6852 40.3151 81.3319 40.3151 80.9042C40.3151 80.585 40.2271 80.3154 40.051 80.0956C39.875 79.8758 39.5968 79.6896 39.2164 79.537L38.749 79.3472C38.4091 79.2087 38.2391 79.026 38.2391 78.7991C38.2391 78.6345 38.3039 78.498 38.4334 78.3895C38.5628 78.2792 38.7257 78.2239 38.922 78.2239C39.0818 78.2239 39.2123 78.256 39.3135 78.3203C39.4106 78.3765 39.5128 78.497 39.6201 78.6817L40.1937 78.3444C39.8902 77.8224 39.4683 77.5614 38.9281 77.5614ZM46.2812 77.5614C45.8806 77.5614 45.5457 77.6799 45.2767 77.9167C45.0075 78.1516 44.873 78.4438 44.873 78.7931C44.873 79.3111 45.1937 79.7046 45.8351 79.9736L46.2873 80.1603C46.4046 80.2106 46.5058 80.2633 46.5908 80.3185C46.6758 80.3737 46.7451 80.4329 46.7987 80.4961C46.8523 80.5594 46.8917 80.6287 46.9171 80.7039C46.9423 80.7792 46.955 80.862 46.955 80.9524C46.955 81.1773 46.8822 81.363 46.7365 81.5095C46.5908 81.6561 46.4077 81.7294 46.1871 81.7294C45.9079 81.7294 45.6955 81.629 45.5498 81.4282C45.4688 81.3239 45.4122 81.1351 45.3798 80.862L44.6636 81.0187C44.7283 81.4523 44.8912 81.7886 45.1522 82.0275C45.4173 82.2665 45.7531 82.3859 46.1598 82.3859C46.5888 82.3859 46.9479 82.2454 47.2372 81.9643C47.5245 81.6852 47.6682 81.3319 47.6682 80.9042C47.6682 80.585 47.5802 80.3154 47.4042 80.0956C47.2281 79.8758 46.9499 79.6896 46.5695 79.537L46.1022 79.3472C45.7622 79.2087 45.5923 79.026 45.5923 78.7991C45.5923 78.6345 45.657 78.498 45.7865 78.3895C45.916 78.2792 46.0789 78.2239 46.2752 78.2239C46.435 78.2239 46.5655 78.256 46.6667 78.3203C46.7638 78.3765 46.8659 78.497 46.9732 78.6817L47.5468 78.3444C47.2433 77.8224 46.8215 77.5614 46.2812 77.5614ZM52.2504 77.6517V82.3016H52.9576V77.6517H52.2504ZM60.1529 77.6517H57.8129V82.3016H58.5201V80.0881H60.0952V79.4285H58.5201V78.3112H60.1529V77.6517ZM71.3204 82.3016C71.7958 82.3016 72.1631 82.2584 72.4221 82.1721C72.6993 82.0858 72.9643 81.9322 73.2172 81.7113C73.7211 81.2696 73.973 80.6914 73.973 79.9766C73.973 79.2639 73.7312 78.6887 73.2476 78.251C73.0088 78.0342 72.7428 77.8806 72.4494 77.7902C72.1763 77.6979 71.8039 77.6517 71.3325 77.6517H70.3492V82.3016H71.3204ZM71.0563 78.3112H71.375C71.9779 78.3112 72.4342 78.4528 72.7438 78.7359C73.0877 79.0531 73.2597 79.4667 73.2597 79.9766C73.2597 80.4826 73.0857 80.8932 72.7377 81.2084C72.5678 81.361 72.3776 81.4724 72.1671 81.5427C71.9567 81.6089 71.6926 81.642 71.375 81.642H71.0563V78.3112ZM81.1774 77.6517H78.5916V82.3016H81.1774V81.642H79.2987V80.0881H81.1227V79.4285H79.2987V78.3112H81.1774V77.6517ZM91.4829 77.6517V82.3016H93.568V81.642H92.1901V77.6517H91.4829Z" fill="#343E26"/>
<path d="M101.473 82.3016H102.247L100.01 77.3596L97.6912 82.3016H98.4529L98.975 81.1723H100.981L101.473 82.3016ZM99.2694 80.5127L99.9977 78.9317L100.693 80.5127H99.2694Z" fill="#343E26"/>
<path d="M112.214 77.6517V82.3016H114.299V81.6421H112.921V77.6517H112.214ZM122.204 82.3016H122.978L120.741 77.3596L118.423 82.3016H119.184L119.706 81.1723H121.713L122.204 82.3016ZM120.001 80.5127L120.729 78.9317L121.424 80.5127H120.001Z" fill="#343E26"/>
<path d="M127.113 77.6518V80.6453C127.113 81.1352 127.267 81.5388 127.574 81.856C127.918 82.2094 128.342 82.386 128.846 82.386C129.35 82.386 129.775 82.2094 130.121 81.856C130.428 81.5388 130.582 81.1352 130.582 80.6453V77.6518H129.875V80.4526C129.875 80.8581 129.809 81.1503 129.678 81.3289C129.481 81.596 129.204 81.7295 128.846 81.7295C128.49 81.7295 128.214 81.596 128.017 81.3289C127.886 81.1442 127.82 80.8521 127.82 80.4526V77.6518H127.113ZM138.545 77.6518H135.459V78.3113H137.383L135.082 82.3017H138.494V81.6421H136.245L138.545 77.6518ZM143.048 77.6518V82.3017H143.756V77.6518H143.048ZM151.197 77.6518H148.611V82.3017H151.197V81.6421H149.318V80.0882H151.142V79.4286H149.318V78.3113H151.197V77.6518ZM150.216 77.2332L150.553 76.9531L149.582 75.9834L148.981 76.402L150.216 77.2332ZM158.195 79.8653C158.385 79.6284 158.48 79.3453 158.48 79.0161C158.48 78.5944 158.328 78.2552 158.025 77.9981C157.75 77.7673 157.303 77.6518 156.683 77.6518H155.855V82.3017H156.562V80.3984H156.689L158.028 82.3017H158.893L157.442 80.3201C157.754 80.2538 158.005 80.1022 158.195 79.8653ZM156.562 78.3113H156.814C157.465 78.3113 157.791 78.5493 157.791 79.0251C157.791 79.5331 157.456 79.787 156.787 79.787H156.562V78.3113ZM165.912 77.6518H163.326V82.3017H165.912V81.6421H164.034V80.0882H165.858V79.4286H164.034V78.3113H165.912V77.6518ZM175.656 81.1061H177.01V80.5158H175.656V81.1061ZM188.332 77.5615C187.932 77.5615 187.597 77.6799 187.328 77.9168C187.058 78.1517 186.924 78.4439 186.924 78.7932C186.924 79.3112 187.245 79.7047 187.886 79.9737L188.338 80.1604C188.456 80.2107 188.557 80.2634 188.642 80.3186C188.727 80.3738 188.796 80.433 188.85 80.4962C188.903 80.5595 188.943 80.6287 188.968 80.704C188.993 80.7793 189.006 80.8621 189.006 80.9525C189.006 81.1774 188.933 81.3631 188.787 81.5096C188.642 81.6562 188.459 81.7295 188.238 81.7295C187.959 81.7295 187.746 81.6291 187.601 81.4283C187.52 81.3239 187.463 81.1352 187.431 80.8621L186.714 81.0187C186.779 81.4524 186.942 81.7887 187.203 82.0276C187.468 82.2666 187.804 82.386 188.211 82.386C188.64 82.386 188.999 82.2455 189.288 81.9644C189.575 81.6853 189.719 81.3319 189.719 80.9043C189.719 80.5851 189.631 80.3155 189.455 80.0957C189.279 79.8759 189.001 79.6897 188.62 79.537L188.153 79.3473C187.813 79.2088 187.643 79.0261 187.643 78.7992C187.643 78.6346 187.708 78.4981 187.837 78.3896C187.967 78.2792 188.13 78.224 188.326 78.224C188.486 78.224 188.616 78.2561 188.718 78.3204C188.815 78.3766 188.917 78.4971 189.024 78.6818L189.598 78.3445C189.294 77.8225 188.872 77.5615 188.332 77.5615Z" fill="#343E26"/>
<path d="M197.5 82.3016H198.274L196.037 77.3596L193.719 82.3016H194.48L195.002 81.1723H197.008L197.5 82.3016ZM195.297 80.5127L196.025 78.9317L196.72 80.5127H195.297ZM201.685 77.6517L203.74 82.6509L205.843 77.6517H205.069L203.755 80.8741L202.459 77.6517H201.685Z" fill="#343E26"/>
<path d="M210.51 81.7626C210.991 82.1782 211.535 82.386 212.14 82.386C212.823 82.386 213.407 82.1521 213.891 81.6843C214.372 81.2185 214.613 80.6513 214.613 79.9827C214.613 79.3182 214.373 78.749 213.894 78.2752C213.416 77.8014 212.844 77.5645 212.176 77.5645C211.5 77.5645 210.921 77.7994 210.44 78.2692C209.956 78.739 209.715 79.3011 209.715 79.9556C209.715 80.7005 209.98 81.3029 210.51 81.7626ZM210.932 78.7299C211.267 78.3926 211.679 78.224 212.167 78.224C212.656 78.224 213.067 78.3926 213.399 78.7299C213.733 79.0653 213.9 79.4809 213.9 79.9767C213.9 80.4666 213.731 80.8822 213.393 81.2235C213.055 81.5608 212.64 81.7295 212.149 81.7295C211.695 81.7295 211.296 81.5638 210.95 81.2326C210.602 80.9013 210.428 80.4787 210.428 79.9647C210.428 79.4748 210.596 79.0632 210.932 78.7299ZM219.232 77.6518V82.3017H219.939V77.6518H219.232Z" fill="#343E26"/>
<path d="M227.38 77.6517H224.794V82.3016H227.38V81.6421H225.502V80.0881H227.326V79.4286H225.502V78.3113H227.38V77.6517Z" fill="#343E26"/>
<path d="M150.01 34.7311V46.6446H139.613C139.601 46.5651 139.584 46.4973 139.584 46.4289C139.619 43.4659 139.659 40.4961 139.682 37.5299C139.682 37.2632 139.767 37.1359 140.018 37.0364C142.174 36.2057 144.386 35.6044 146.655 35.1904C147.592 35.0204 148.535 34.8984 149.479 34.7621C149.644 34.7363 149.81 34.7421 150.01 34.7311Z" fill="#BE1622"/>
<path d="M156.984 34.6716C157.601 34.7426 158.195 34.7963 158.784 34.881C160.819 35.1819 162.808 35.6438 164.757 36.3052C165.41 36.5235 166.038 36.7844 166.678 37.0196C166.849 37.0817 166.913 37.1785 166.918 37.3626C166.93 40.3603 166.958 43.3548 166.981 46.3525C166.981 46.443 166.969 46.5341 166.964 46.6393H156.984V34.6716Z" fill="#BE1622"/>
<path d="M150.01 67.8397C147.078 66.4786 144.637 64.6094 142.745 62.0547C140.613 59.1733 139.664 55.5658 139.573 53.181H150.01V67.8397Z" fill="#BE1622"/>
<path d="M156.984 53.1753H167.049C167.032 56.0904 166.255 58.7624 164.74 61.2183C162.883 64.2186 160.207 66.2772 156.984 67.7518V53.1753Z" fill="#BE1622"/>
</svg>
