<svg width="256" height="79" viewBox="0 0 256 79" fill="none" xmlns="http://www.w3.org/2000/svg">
<path d="M17.1561 48.8982C17.1561 49.8602 17.1453 50.6223 17.1248 51.1866C17.1032 51.7508 17.0719 52.221 17.0307 52.5972C16.9886 52.9734 16.9151 53.2771 16.8113 53.5063C16.7065 53.7365 16.5919 53.9559 16.4665 54.1646C16.2157 54.5829 15.8914 54.8856 15.4947 55.0737C15.097 55.2618 14.4808 55.3558 13.6452 55.3558C11.973 55.3558 10.9698 54.8964 10.6358 53.9765C10.5515 53.6846 10.479 53.3398 10.4163 52.942C10.3536 52.5453 10.3008 51.8978 10.2596 50.9985C10.2175 50.1002 10.1861 48.8463 10.1656 47.2367C10.144 45.6282 10.1342 43.4652 10.1342 40.7478C10.1342 38.1988 10.144 36.1298 10.1656 34.5409C10.1861 32.9529 10.2175 31.7098 10.2596 30.8105C10.3008 29.9122 10.3634 29.2431 10.4477 28.8042C10.531 28.3654 10.6142 27.9794 10.6985 27.6444C10.865 27.2271 11.1471 26.9234 11.5449 26.7353C11.9416 26.5472 12.5578 26.4532 13.3944 26.4532C15.1499 26.4532 16.1109 26.8509 16.2784 27.6444C16.3616 27.9794 16.4449 28.3967 16.5292 28.8983C16.6124 29.3999 16.6546 30.1738 16.6546 31.218V31.6256C16.6546 31.7725 16.633 31.9077 16.5919 32.0331H25.7454C25.7866 31.6158 25.8081 31.2494 25.8081 30.9359V29.5879C25.8081 26.704 25.5358 24.3842 24.9931 22.6287C24.2819 20.4971 23.0495 18.9826 21.294 18.0833C19.5385 17.185 16.9259 16.7354 13.4571 16.7354C10.4477 16.7354 8.14853 17.0077 6.56057 17.5504C4.97163 18.0941 3.75984 19.0766 2.92422 20.4971C2.50593 21.2083 2.15032 21.9812 1.8584 22.8168C1.56549 23.6534 1.32549 24.8025 1.1374 26.2651C0.949315 27.7286 0.81315 29.6095 0.729876 31.9077C0.645627 34.2068 0.604492 37.1957 0.604492 40.8731C0.604492 44.7191 0.645627 47.8324 0.729876 50.2148C0.81315 52.5972 0.949315 54.5408 1.1374 56.0455C1.32549 57.5502 1.56549 58.7316 1.8584 59.5878C2.15032 60.4449 2.50593 61.2286 2.92422 61.9389C3.75984 63.4024 4.96183 64.4153 6.52922 64.9796C8.09661 65.5438 10.4056 65.826 13.4571 65.826C14.9618 65.826 16.2784 65.7633 17.4069 65.6379C18.5354 65.5125 19.517 65.2931 20.3536 64.9796C21.1892 64.6661 21.8896 64.2694 22.4539 63.7884C23.0182 63.3084 23.5089 62.6912 23.9272 61.9389C24.3034 61.3119 24.6267 60.6438 24.899 59.9326C25.1704 59.2224 25.4006 58.3025 25.5887 57.174C25.7768 56.0455 25.9119 54.625 25.9962 52.9107C26.0795 51.1973 26.1216 49.0451 26.1216 46.4531C26.1216 44.2381 26.1108 42.3367 26.0902 40.7478C26.0687 39.1598 26.0373 37.948 25.9962 37.1114H12.5793V46.6411H17.1561V48.8982ZM56.0267 65.0109V64.6975C55.9013 64.3634 55.8073 64.0078 55.7446 63.6316C55.6819 63.2555 55.5976 62.7127 55.4938 62.0015C55.389 61.2913 55.2744 60.3509 55.149 59.1802C55.0236 58.0106 54.8355 56.4638 54.5847 54.5408C54.2497 51.7822 53.9049 49.6407 53.5502 48.1145C53.1946 46.5892 52.8498 45.4499 52.5158 44.6976C52.3061 44.1127 52.0661 43.6944 51.7948 43.4437C51.5224 43.1929 51.2619 42.9636 51.0111 42.754V42.3778C51.6792 42.0017 52.265 41.6157 52.7666 41.218C53.2681 40.8212 53.6962 40.2256 54.0518 39.4311C54.4064 38.6377 54.668 37.5405 54.8355 36.1396C55.002 34.7398 55.0863 32.807 55.0863 30.3403C55.0863 28.0421 54.9296 26.0878 54.6161 24.4783C54.3026 22.8697 53.7383 21.5531 52.9233 20.5284C52.1082 19.5047 51.0111 18.7524 49.6318 18.2714C48.2525 17.7914 46.497 17.5504 44.3653 17.5504H30.0081V65.0109H39.8513V46.5157H41.356C41.6479 46.5157 41.9202 46.5686 42.171 46.6725C42.4218 46.7773 42.6304 47.0075 42.798 47.3621C42.9645 47.7177 43.1114 48.2301 43.2368 48.8982C43.3622 49.5672 43.4876 50.445 43.613 51.5314C43.9049 54.29 44.1557 56.4638 44.3653 58.0517C44.574 59.6407 44.7415 60.8838 44.8669 61.7821C44.9923 62.6814 45.1069 63.3495 45.2117 63.7884C45.3156 64.2272 45.4312 64.6348 45.5566 65.0109H56.0267ZM39.8513 37.6757V27.3309H42.3591C43.3201 27.3309 44.0205 27.6444 44.4594 28.2713C44.8983 28.8983 45.1177 30.1522 45.1177 32.0331C45.1177 34.249 44.9296 35.7429 44.5534 36.5158C44.1773 37.2897 43.5288 37.6757 42.6099 37.6757H39.8513ZM84.4899 65.0109L79.725 17.5504H63.1734L58.0951 65.0109H68.001L68.7533 54.0392H73.5182L74.3332 65.0109H84.4899ZM73.0793 44.4468H69.1922L70.7596 27.4563H71.4492L73.0793 44.4468ZM113.517 65.0109V17.5504H104.489V34.0393H104.113L97.4674 17.5504H87.8123V65.0109H96.7777V39.5565H97.1539L108.376 65.0109H113.517ZM131.385 65.0109C132.89 65.0109 134.206 64.9482 135.335 64.8228C136.463 64.6975 137.445 64.4888 138.282 64.1959C139.117 63.904 139.827 63.517 140.413 63.036C140.998 62.556 141.5 61.9604 141.918 61.2492C142.335 60.5811 142.68 59.8288 142.952 58.9922C143.224 58.1565 143.454 57.028 143.642 55.6066C143.83 54.1862 143.965 52.3366 144.05 50.058C144.133 47.7804 144.175 44.8445 144.175 41.2493C144.175 37.6551 144.133 34.729 144.05 32.4719C143.965 30.2149 143.83 28.3762 143.642 26.9547C143.454 25.5343 143.224 24.4156 142.952 23.6005C142.68 22.7855 142.335 22.0233 141.918 21.3121C141.081 19.9328 139.87 18.961 138.282 18.3968C136.693 17.8325 134.394 17.5504 131.385 17.5504H118.156V65.0109H131.385ZM128 54.5408V27.519H131.134C131.928 27.519 132.492 27.6032 132.827 27.7698C133.161 27.9373 133.412 28.1881 133.579 28.5221C133.663 28.815 133.746 29.1706 133.83 29.5879C133.913 30.0062 133.976 30.6538 134.018 31.5315C134.059 32.4092 134.091 33.6112 134.112 35.1365C134.133 36.6627 134.144 38.6377 134.144 41.0612C134.144 43.4858 134.133 45.4401 134.112 46.9233C134.091 48.4074 134.059 49.5878 134.018 50.4656C133.976 51.3433 133.913 51.981 133.83 52.3778C133.746 52.7755 133.663 53.1203 133.579 53.4123C133.412 53.8306 133.161 54.1235 132.827 54.29C132.492 54.4575 131.928 54.5408 131.134 54.5408H128ZM196.776 65.0109V50.7163H201.164C203.296 50.7163 205.052 50.4244 206.431 49.8386C207.81 49.2538 208.907 48.2928 209.722 46.9546C210.537 45.6174 211.102 43.8727 211.415 41.7195C211.729 39.5673 211.885 36.9449 211.885 33.8512C211.885 30.8007 211.729 28.24 211.415 26.171C211.102 24.1021 210.537 22.4309 209.722 21.1554C208.907 19.8809 207.81 18.961 206.431 18.3968C205.052 17.8325 203.296 17.5504 201.164 17.5504H186.933V65.0109H196.776ZM196.776 40.9358V27.4563H199.158C200.119 27.4563 200.82 27.854 201.258 28.6475C201.697 29.442 201.917 31.0926 201.917 33.6005C201.917 36.4433 201.729 38.3761 201.353 39.3998C200.976 40.4245 200.328 40.9358 199.409 40.9358H196.776ZM225.866 65.0109V17.5504H215.772V65.0109H225.866ZM246.116 46.8292C246.116 47.7912 246.105 48.6376 246.085 49.3684C246.063 50.1002 246.032 50.7477 245.991 51.312C245.949 51.8762 245.886 52.3886 245.803 52.848C245.718 53.3084 245.593 53.7473 245.426 54.1646C245.176 54.8758 244.423 55.2304 243.169 55.2304C242.207 55.2304 241.539 55.1472 241.163 54.9796C240.787 54.8131 240.536 54.5202 240.411 54.1019C240.285 53.7679 240.191 53.3711 240.129 52.9107C240.066 52.4512 240.003 51.7616 239.941 50.8417C239.878 49.9229 239.836 48.6689 239.815 47.08C239.794 45.492 239.784 43.381 239.784 40.7478C239.784 38.1988 239.794 36.1298 239.815 34.5409C239.836 32.9529 239.878 31.7098 239.941 30.8105C240.003 29.9122 240.066 29.2431 240.129 28.8042C240.191 28.3654 240.285 27.9794 240.411 27.6444C240.536 27.2271 240.776 26.9234 241.132 26.7353C241.486 26.5472 242.061 26.4532 242.856 26.4532C244.444 26.4532 245.322 26.8509 245.489 27.6444C245.53 27.854 245.583 28.1146 245.646 28.4281C245.709 28.7416 245.76 29.1706 245.803 29.7133C245.844 30.257 245.875 30.9467 245.897 31.7823C245.917 32.6189 245.928 33.6632 245.928 34.9171H255.144C255.185 34.1236 255.217 33.3712 255.238 32.66C255.259 31.9498 255.27 31.3023 255.27 30.7165C255.27 28.2086 255.123 26.0672 254.831 24.2902C254.538 22.5141 253.953 21.0613 253.075 19.9328C252.198 18.8043 250.944 17.9893 249.314 17.4877C247.683 16.9861 245.53 16.7354 242.856 16.7354C239.847 16.7354 237.547 17.0077 235.959 17.5504C234.37 18.0941 233.159 19.0766 232.323 20.4971C231.905 21.2083 231.549 21.9812 231.257 22.8168C230.964 23.6534 230.724 24.8025 230.536 26.2651C230.348 27.7286 230.212 29.6095 230.129 31.9077C230.044 34.2068 230.003 37.1957 230.003 40.8731C230.003 44.5516 230.044 47.5816 230.129 49.964C230.212 52.3464 230.348 54.3116 230.536 55.8574C230.724 57.4042 230.964 58.6375 231.257 59.5564C231.549 60.4763 231.905 61.2708 232.323 61.9389C233.117 63.4024 234.339 64.4153 235.991 64.9796C237.641 65.5438 240.035 65.826 243.169 65.826C245.803 65.826 247.923 65.5331 249.533 64.9482C251.142 64.3634 252.386 63.4651 253.263 62.2523C254.141 61.0405 254.715 59.5045 254.988 57.6442C255.259 55.7849 255.395 53.6003 255.395 51.0925C255.395 49.7553 255.332 48.3339 255.207 46.8292H246.116Z" fill="white"/>
<path d="M5.4981 9.9426C6.12896 9.9426 6.65407 9.88477 7.07333 9.76891C7.45667 9.64911 7.802 9.43555 8.10952 9.12803C8.6206 8.62893 8.87619 8.018 8.87619 7.29523C8.87619 6.7442 8.73243 6.2611 8.44494 5.84577C8.16137 5.4265 7.77411 5.13302 7.28297 4.96531C7.79002 4.50618 8.04364 3.94512 8.04364 3.28226C8.04364 2.91896 7.96577 2.55959 7.81005 2.20414C7.65825 1.85282 7.45264 1.55933 7.19313 1.32368C6.93754 1.09608 6.62412 0.934365 6.25277 0.838534C5.88535 0.742694 5.39225 0.694778 4.77336 0.694778H3.38379V9.9426H5.4981ZM4.77935 1.97654H5.27049C5.74161 1.97654 6.10098 2.08941 6.3486 2.31495C6.59614 2.54058 6.71995 2.87104 6.71995 3.30621C6.71995 3.75346 6.59914 4.09187 6.35759 4.32144C6.11595 4.5511 5.73562 4.66583 5.21659 4.66583H4.77935V1.97654ZM4.77935 5.83379H5.48612C6.23677 5.83379 6.75786 5.96762 7.04938 6.23509C7.34886 6.50668 7.49859 6.84209 7.49859 7.24132C7.49859 7.65264 7.34286 7.99208 7.03141 8.25955C6.73587 8.50717 6.2727 8.6309 5.64184 8.6309H4.77935V5.83379ZM18.1377 5.09708C18.5129 4.62597 18.7007 4.06295 18.7007 3.40803C18.7007 2.5695 18.4012 1.89474 17.8022 1.38358C17.2592 0.924442 16.3767 0.694778 15.1549 0.694778H13.5197V9.9426H14.9153V6.15722H15.1669L17.8082 9.9426H19.5152L16.6523 6.00149C17.2671 5.86973 17.7623 5.56828 18.1377 5.09708ZM14.9153 2.00649H15.4124C16.6981 2.00649 17.3411 2.47966 17.3411 3.426C17.3411 4.43627 16.6801 4.94136 15.3585 4.94136H14.9153V2.00649ZM30.1902 9.9426H31.7176L27.3033 0.113793L22.7273 9.9426H24.2307L25.2609 7.69653H29.2199L30.1902 9.9426ZM25.8419 6.38483L27.2793 3.24032L28.6509 6.38483H25.8419ZM38.4874 0.515098C37.6968 0.515098 37.0359 0.750743 36.5049 1.22186C35.9738 1.68904 35.7083 2.27003 35.7083 2.96481C35.7083 3.99501 36.3411 4.77767 37.6069 5.31271L38.4994 5.68405C38.7309 5.78391 38.9306 5.88873 39.0983 5.9985C39.266 6.10837 39.4028 6.2261 39.5086 6.35189C39.6144 6.47766 39.6922 6.61542 39.7422 6.76517C39.7921 6.9149 39.8171 7.07962 39.8171 7.2593C39.8171 7.70655 39.6733 8.07593 39.3858 8.36736C39.0983 8.65888 38.7369 8.80459 38.3017 8.80459C37.7507 8.80459 37.3314 8.60498 37.0439 8.20564C36.8842 7.99807 36.7723 7.6227 36.7085 7.07962L35.295 7.39107C35.4227 8.25356 35.7442 8.92242 36.2593 9.39756C36.7824 9.87279 37.4452 10.1103 38.2478 10.1103C39.0943 10.1103 39.803 9.83086 40.3741 9.27177C40.941 8.71681 41.2246 8.01398 41.2246 7.16347C41.2246 6.52857 41.0509 5.99251 40.7035 5.55528C40.3561 5.11804 39.8071 4.74772 39.0564 4.44422L38.134 4.06688C37.4632 3.79137 37.1278 3.42806 37.1278 2.97678C37.1278 2.64943 37.2555 2.37784 37.5111 2.16221C37.7666 1.94266 38.0881 1.83279 38.4754 1.83279C38.7908 1.83279 39.0484 1.89671 39.2481 2.02446C39.4397 2.13629 39.6413 2.37588 39.853 2.7432L40.985 2.07237C40.3861 1.03422 39.5535 0.515098 38.4874 0.515098ZM48.5215 0.515098C47.7309 0.515098 47.07 0.750743 46.539 1.22186C46.0079 1.68904 45.7424 2.27003 45.7424 2.96481C45.7424 3.99501 46.3752 4.77767 47.6411 5.31271L48.5335 5.68405C48.765 5.78391 48.9647 5.88873 49.1325 5.9985C49.3002 6.10837 49.4369 6.2261 49.5427 6.35189C49.6485 6.47766 49.7263 6.61542 49.7763 6.76517C49.8262 6.9149 49.8512 7.07962 49.8512 7.2593C49.8512 7.70655 49.7075 8.07593 49.4199 8.36736C49.1325 8.65888 48.771 8.80459 48.3358 8.80459C47.7848 8.80459 47.3655 8.60498 47.078 8.20564C46.9183 7.99807 46.8065 7.6227 46.7426 7.07962L45.3291 7.39107C45.4569 8.25356 45.7783 8.92242 46.2934 9.39756C46.8165 9.87279 47.4794 10.1103 48.2819 10.1103C49.1284 10.1103 49.8372 9.83086 50.4082 9.27177C50.9752 8.71681 51.2587 8.01398 51.2587 7.16347C51.2587 6.52857 51.085 5.99251 50.7376 5.55528C50.3903 5.11804 49.8412 4.74772 49.0905 4.44422L48.1681 4.06688C47.4973 3.79137 47.1619 3.42806 47.1619 2.97678C47.1619 2.64943 47.2896 2.37784 47.5452 2.16221C47.8007 1.94266 48.1222 1.83279 48.5095 1.83279C48.8249 1.83279 49.0825 1.89671 49.2822 2.02446C49.4739 2.13629 49.6754 2.37588 49.8871 2.7432L51.0192 2.07237C50.4202 1.03422 49.5877 0.515098 48.5215 0.515098ZM60.9275 0.694778H55.8244V9.9426H60.9275V8.6309H57.22V5.5403H60.8197V4.2286H57.22V2.00649H60.9275V0.694778ZM70.2608 5.09708C70.6361 4.62597 70.8239 4.06295 70.8239 3.40803C70.8239 2.5695 70.5244 1.89474 69.9254 1.38358C69.3823 0.924442 68.4999 0.694778 67.2781 0.694778H65.6429V9.9426H67.0385V6.15722H67.29L69.9314 9.9426H71.6384L68.7754 6.00149C69.3903 5.86973 69.8855 5.56828 70.2608 5.09708ZM67.0385 2.00649H67.5356C68.8213 2.00649 69.4642 2.47966 69.4642 3.426C69.4642 4.43627 68.8033 4.94136 67.4817 4.94136H67.0385V2.00649ZM75.9106 0.694778V9.9426H77.3062V0.694778H75.9106ZM87.514 0.694778H82.4109V9.9426H87.514V8.6309H83.8065V5.5403H87.4062V4.2286H83.8065V2.00649H87.514V0.694778ZM100.017 9.9426L101.012 4.35438L103.671 10.3678L106.408 4.36037L107.301 9.9426H108.732L106.983 0L103.695 7.18742L100.521 0L98.574 9.9426H100.017ZM119.976 9.9426H121.504L117.089 0.113793L112.513 9.9426H114.017L115.047 7.69653H119.006L119.976 9.9426ZM115.628 6.38483L117.065 3.24032L118.437 6.38483H115.628Z" fill="white"/>
<path d="M125.171 0.696283V6.64987C125.171 7.6242 125.474 8.42679 126.081 9.05766C126.76 9.76049 127.597 10.1118 128.591 10.1118C129.585 10.1118 130.424 9.76049 131.107 9.05766C131.713 8.42679 132.017 7.6242 132.017 6.64987V0.696283H130.621V6.26654C130.621 7.07316 130.492 7.65414 130.232 8.0095C129.845 8.54059 129.298 8.8061 128.591 8.8061C127.888 8.8061 127.343 8.54059 126.956 8.0095C126.696 7.64216 126.566 7.06118 126.566 6.26654V0.696283H125.171ZM141.734 5.09859C142.109 4.62747 142.297 4.06446 142.297 3.40954C142.297 2.571 141.997 1.89625 141.398 1.38508C140.855 0.925948 139.973 0.696283 138.751 0.696283H137.116V9.9441H138.511V6.15873H138.763L141.404 9.9441H143.111L140.248 6.003C140.863 5.87123 141.358 5.56979 141.734 5.09859ZM138.511 2.00799H139.008C140.294 2.00799 140.937 2.48116 140.937 3.42751C140.937 4.43777 140.276 4.94286 138.954 4.94286H138.511V2.00799ZM147.383 0.696283V9.9441H148.779V0.696283H147.383ZM158.987 0.696283H153.884V9.9441H158.987V8.63241H155.279V5.54181H158.879V4.2301H155.279V2.00799H158.987V0.696283ZM165.098 9.9441V3.46943L171.842 10.5071V0.696283H170.446V7.12305L163.702 0.0673828V9.9441H165.098ZM178.336 9.9441V3.46943L185.08 10.5071V0.696283H183.685V7.12305L176.941 0.0673828V9.9441H178.336ZM196.582 9.9441H198.109L193.695 0.115298L189.119 9.9441H190.622L191.653 7.69804H195.612L196.582 9.9441ZM192.234 6.38633L193.671 3.24183L195.043 6.38633H192.234ZM202.148 0.696283V9.9441H203.544V0.696283H202.148ZM211.379 0.516603C210.589 0.516603 209.928 0.752248 209.397 1.22336C208.866 1.69055 208.6 2.27153 208.6 2.96632C208.6 3.99651 209.233 4.77917 210.499 5.31421L211.391 5.68555C211.623 5.78541 211.823 5.89023 211.99 6C212.158 6.10988 212.295 6.22761 212.401 6.35339C212.506 6.47917 212.584 6.61692 212.634 6.76667C212.684 6.91641 212.709 7.08112 212.709 7.2608C212.709 7.70805 212.565 8.07743 212.278 8.36887C211.99 8.66039 211.629 8.8061 211.194 8.8061C210.643 8.8061 210.223 8.60648 209.936 8.20715C209.776 7.99957 209.664 7.6242 209.601 7.08112L208.187 7.39258C208.315 8.25506 208.636 8.92393 209.151 9.39906C209.674 9.87429 210.337 10.1118 211.14 10.1118C211.986 10.1118 212.695 9.83237 213.266 9.27328C213.833 8.71831 214.117 8.01549 214.117 7.16497C214.117 6.53008 213.943 5.99401 213.596 5.55678C213.248 5.11955 212.699 4.74923 211.948 4.44572L211.026 4.06838C210.355 3.79287 210.02 3.42957 210.02 2.97829C210.02 2.65093 210.148 2.37934 210.403 2.16372C210.659 1.94416 210.98 1.83429 211.367 1.83429C211.683 1.83429 211.94 1.89822 212.14 2.02596C212.332 2.13779 212.533 2.37738 212.745 2.7447L213.877 2.07388C213.278 1.03572 212.446 0.516603 211.379 0.516603ZM223.785 0.696283H218.682V9.9441H223.785V8.63241H220.078V5.54181H223.678V4.2301H220.078V2.00799H223.785V0.696283ZM237.086 9.9441C238.024 9.9441 238.749 9.85829 239.26 9.68655C239.807 9.51492 240.33 9.20946 240.829 8.77016C241.823 7.89176 242.32 6.74177 242.32 5.32019C242.32 3.90274 241.843 2.75874 240.889 1.8882C240.418 1.45696 239.893 1.15149 239.314 0.971804C238.775 0.788192 238.04 0.696283 237.109 0.696283H235.169V9.9441H237.086ZM236.564 2.00799H237.193C238.383 2.00799 239.284 2.2895 239.895 2.85252C240.573 3.48347 240.913 4.306 240.913 5.32019C240.913 6.32644 240.569 7.14307 239.883 7.76991C239.547 8.07341 239.172 8.29503 238.757 8.43475C238.341 8.56652 237.82 8.63241 237.193 8.63241H236.564V2.00799ZM246.958 0.696283V6.64987C246.958 7.6242 247.261 8.42679 247.868 9.05766C248.547 9.76049 249.384 10.1118 250.378 10.1118C251.372 10.1118 252.211 9.76049 252.894 9.05766C253.5 8.42679 253.804 7.6242 253.804 6.64987V0.696283H252.408V6.26654C252.408 7.07316 252.279 7.65414 252.019 8.0095C251.632 8.54059 251.085 8.8061 250.378 8.8061C249.675 8.8061 249.13 8.54059 248.743 8.0095C248.483 7.64216 248.353 7.06118 248.353 6.26654V0.696283H246.958Z" fill="white"/>
<path d="M4.39043 78.5765L4.99803 75.1615L6.62319 78.8364L8.29593 75.1652L8.84131 78.5765H9.71611L8.64732 72.5005L6.63783 76.8928L4.69789 72.5005L3.5083 78.5765H4.39043ZM19.3236 78.5765H20.2569L17.5593 72.57L14.7629 78.5765H15.6816L16.3112 77.2039H18.7306L19.3236 78.5765ZM16.6662 76.4023L17.5447 74.4807L18.3829 76.4023H16.6662ZM27.1302 72.8153C26.647 72.8153 26.2431 72.9593 25.9186 73.2472C25.5941 73.5327 25.4318 73.8877 25.4318 74.3123C25.4318 74.9419 25.8186 75.4202 26.5921 75.7471L27.1375 75.9741C27.279 76.0351 27.401 76.0992 27.5035 76.1662C27.606 76.2334 27.6896 76.3053 27.7543 76.3822C27.8189 76.4591 27.8665 76.5433 27.897 76.6348C27.9275 76.7263 27.9428 76.8269 27.9428 76.9367C27.9428 77.2101 27.8549 77.4358 27.6792 77.6139C27.5035 77.792 27.2827 77.8811 27.0167 77.8811C26.68 77.8811 26.4238 77.7591 26.2481 77.515C26.1504 77.3882 26.0821 77.1588 26.0431 76.8269L25.1793 77.0173C25.2573 77.5443 25.4538 77.9531 25.7686 78.2434C26.0882 78.5339 26.4933 78.679 26.9838 78.679C27.5011 78.679 27.9342 78.5082 28.2832 78.1666C28.6296 77.8274 28.8029 77.3979 28.8029 76.8782C28.8029 76.4902 28.6968 76.1626 28.4845 75.8954C28.2722 75.6282 27.9366 75.4019 27.4779 75.2164L26.9142 74.9858C26.5043 74.8174 26.2993 74.5954 26.2993 74.3196C26.2993 74.1196 26.3774 73.9536 26.5336 73.8218C26.6897 73.6877 26.8861 73.6205 27.1229 73.6205C27.3156 73.6205 27.473 73.6596 27.595 73.7377C27.7122 73.806 27.8354 73.9524 27.9647 74.1769L28.6565 73.7669C28.2905 73.1325 27.7817 72.8153 27.1302 72.8153ZM35.9983 72.8153C35.5151 72.8153 35.1112 72.9593 34.7867 73.2472C34.4622 73.5327 34.2999 73.8877 34.2999 74.3123C34.2999 74.9419 34.6866 75.4202 35.4602 75.7471L36.0056 75.9741C36.1471 76.0351 36.2691 76.0992 36.3716 76.1662C36.4741 76.2334 36.5577 76.3053 36.6223 76.3822C36.687 76.4591 36.7346 76.5433 36.7651 76.6348C36.7956 76.7263 36.8109 76.8269 36.8109 76.9367C36.8109 77.2101 36.723 77.4358 36.5473 77.6139C36.3716 77.792 36.1507 77.8811 35.8848 77.8811C35.5481 77.8811 35.2918 77.7591 35.1161 77.515C35.0185 77.3882 34.9502 77.1588 34.9112 76.8269L34.0473 77.0173C34.1254 77.5443 34.3219 77.9531 34.6366 78.2434C34.9563 78.5339 35.3614 78.679 35.8519 78.679C36.3692 78.679 36.8023 78.5082 37.1513 78.1666C37.4977 77.8274 37.671 77.3979 37.671 76.8782C37.671 76.4902 37.5649 76.1626 37.3526 75.8954C37.1403 75.6282 36.8047 75.4019 36.346 75.2164L35.7823 74.9858C35.3724 74.8174 35.1674 74.5954 35.1674 74.3196C35.1674 74.1196 35.2455 73.9536 35.4016 73.8218C35.5578 73.6877 35.7542 73.6205 35.991 73.6205C36.1837 73.6205 36.3411 73.6596 36.4631 73.7377C36.5803 73.806 36.7034 73.9524 36.8328 74.1769L37.5246 73.7669C37.1586 73.1325 36.6498 72.8153 35.9983 72.8153ZM43.1973 72.9251V78.5765H44.0501V72.9251H43.1973ZM52.7279 72.9251H49.9058V78.5765H50.7586V75.8862H52.6583V75.0846H50.7586V73.7267H52.7279V72.9251ZM66.1962 78.5765C66.7696 78.5765 67.2125 78.5241 67.5248 78.4191C67.8591 78.3143 68.1788 78.1276 68.4838 77.8591C69.0914 77.3223 69.3952 76.6195 69.3952 75.7508C69.3952 74.8846 69.1036 74.1855 68.5204 73.6535C68.2325 73.3899 67.9116 73.2033 67.5578 73.0935C67.2284 72.9812 66.7794 72.9251 66.2108 72.9251H65.0249V78.5765H66.1962ZM65.8777 73.7267H66.2621C66.9892 73.7267 67.5395 73.8987 67.9128 74.2428C68.3276 74.6284 68.5351 75.131 68.5351 75.7508C68.5351 76.3657 68.3252 76.8648 67.9055 77.2479C67.7005 77.4333 67.4711 77.5688 67.2174 77.6541C66.9636 77.7347 66.6451 77.7749 66.2621 77.7749H65.8777V73.7267ZM78.084 72.9251H74.9654V78.5765H78.084V77.7749H75.8183V75.8862H78.0181V75.0846H75.8183V73.7267H78.084V72.9251ZM90.5127 72.9251V78.5765H93.0273V77.7749H91.3656V72.9251H90.5127Z" fill="white"/>
<path d="M102.561 78.5744H103.495L100.797 72.5679L98.0005 78.5744H98.9192L99.5488 77.2018H101.968L102.561 78.5744ZM99.9038 76.4002L100.782 74.4785L101.62 76.4002H99.9038Z" fill="white"/>
<path d="M115.516 72.9229V78.5744H118.03V77.7728H116.368V72.9229H115.516ZM127.565 78.5744H128.498L125.8 72.5679L123.004 78.5744H123.923L124.552 77.2018H126.972L127.565 78.5744ZM124.907 76.4002L125.786 74.4785L126.624 76.4002H124.907Z" fill="white"/>
<path d="M133.483 72.9262V76.5645C133.483 77.1599 133.669 77.6504 134.04 78.036C134.455 78.4655 134.966 78.6801 135.573 78.6801C136.181 78.6801 136.693 78.4655 137.111 78.036C137.482 77.6504 137.667 77.1599 137.667 76.5645V72.9262H136.814V76.3303C136.814 76.8232 136.735 77.1782 136.576 77.3954C136.34 77.72 136.005 77.8822 135.573 77.8822C135.144 77.8822 134.811 77.72 134.574 77.3954C134.416 77.1709 134.336 76.8159 134.336 76.3303V72.9262H133.483ZM147.271 72.9262H143.548V73.7278H145.869L143.095 78.5777H147.209V77.7761H144.496L147.271 72.9262ZM152.702 72.9262V78.5777H153.555V72.9262H152.702ZM162.529 72.9262H159.411V78.5777H162.529V77.7761H160.263V75.8874H162.463V75.0858H160.263V73.7278H162.529V72.9262ZM161.347 72.4174L161.753 72.077L160.582 70.8984L159.857 71.4072L161.347 72.4174ZM170.969 75.6165C171.198 75.3286 171.313 74.9845 171.313 74.5843C171.313 74.0719 171.13 73.6595 170.764 73.3471C170.432 73.0666 169.893 72.9262 169.146 72.9262H168.147V78.5777H169V76.2644H169.153L170.768 78.5777H171.811L170.061 76.1692C170.437 76.0887 170.739 75.9045 170.969 75.6165ZM169 73.7278H169.303C170.089 73.7278 170.482 74.017 170.482 74.5953C170.482 75.2127 170.078 75.5214 169.271 75.5214H169V73.7278ZM180.276 72.9262H177.158V78.5777H180.276V77.7761H178.01V75.8874H180.21V75.0858H178.01V73.7278H180.276V72.9262ZM192.028 77.1245H193.66V76.4071H192.028V77.1245ZM207.315 72.8164C206.832 72.8164 206.428 72.9604 206.104 73.2483C205.779 73.5338 205.617 73.8889 205.617 74.3135C205.617 74.943 206.004 75.4213 206.777 75.7483L207.323 75.9752C207.464 76.0362 207.586 76.1003 207.689 76.1674C207.791 76.2345 207.875 76.3065 207.939 76.3833C208.004 76.4602 208.052 76.5444 208.082 76.6359C208.113 76.7274 208.128 76.8281 208.128 76.9379C208.128 77.2112 208.04 77.4369 207.864 77.615C207.689 77.7932 207.468 77.8822 207.202 77.8822C206.865 77.8822 206.609 77.7602 206.433 77.5162C206.336 77.3893 206.267 77.1599 206.228 76.8281L205.364 77.0184C205.442 77.5455 205.639 77.9542 205.954 78.2446C206.273 78.535 206.678 78.6801 207.169 78.6801C207.686 78.6801 208.119 78.5094 208.468 78.1677C208.815 77.8286 208.988 77.3991 208.988 76.8793C208.988 76.4913 208.882 76.1637 208.67 75.8965C208.457 75.6293 208.122 75.403 207.663 75.2175L207.099 74.9869C206.689 74.8186 206.484 74.5966 206.484 74.3208C206.484 74.1207 206.562 73.9547 206.719 73.823C206.875 73.6888 207.071 73.6217 207.308 73.6217C207.501 73.6217 207.658 73.6607 207.78 73.7388C207.897 73.8071 208.02 73.9535 208.15 74.178L208.842 73.7681C208.476 73.1337 207.967 72.8164 207.315 72.8164Z" fill="white"/>
<path d="M218.373 78.5744H219.306L216.608 72.5679L213.812 78.5744H214.731L215.36 77.2018H217.78L218.373 78.5744ZM215.715 76.4002L216.594 74.4785L217.432 76.4002H215.715ZM223.42 72.9229L225.898 78.9989L228.435 72.9229H227.501L225.916 76.8394L224.353 72.9229H223.42Z" fill="white"/>
<path d="M234.062 77.9198C234.643 78.4249 235.298 78.6775 236.028 78.6775C236.852 78.6775 237.556 78.3932 238.14 77.8246C238.72 77.2585 239.011 76.5692 239.011 75.7566C239.011 74.9489 238.722 74.2571 238.143 73.6812C237.567 73.1053 236.877 72.8174 236.071 72.8174C235.256 72.8174 234.559 73.1029 233.978 73.6739C233.395 74.2449 233.103 74.9282 233.103 75.7236C233.103 76.629 233.423 77.361 234.062 77.9198ZM234.571 74.2339C234.976 73.824 235.472 73.619 236.061 73.619C236.651 73.619 237.146 73.824 237.547 74.2339C237.949 74.6415 238.151 75.1466 238.151 75.7493C238.151 76.3447 237.947 76.8498 237.539 77.2646C237.132 77.6746 236.632 77.8795 236.039 77.8795C235.492 77.8795 235.01 77.6782 234.593 77.2756C234.173 76.873 233.963 76.3593 233.963 75.7346C233.963 75.1393 234.166 74.639 234.571 74.2339ZM244.581 72.9235V78.575H245.434V72.9235H244.581Z" fill="white"/>
<path d="M254.409 72.9238H251.291V78.5753H254.409V77.7737H252.143V75.885H254.343V75.0834H252.143V73.7254H254.409V72.9238Z" fill="white"/>
<path d="M161.097 20.7593V35.2389H148.558C148.544 35.1423 148.523 35.0599 148.523 34.9768C148.565 31.3756 148.614 27.766 148.641 24.161C148.641 23.8368 148.744 23.6821 149.047 23.5612C151.646 22.5516 154.315 21.8207 157.051 21.3175C158.181 21.111 159.319 20.9626 160.456 20.797C160.656 20.7657 160.856 20.7727 161.097 20.7593Z" fill="#BE1622"/>
<path d="M169.508 20.688C170.253 20.7743 170.969 20.8395 171.68 20.9425C174.133 21.3082 176.532 21.8696 178.883 22.6734C179.67 22.9387 180.428 23.2559 181.199 23.5417C181.406 23.6171 181.483 23.7348 181.489 23.9586C181.503 27.602 181.537 31.2416 181.565 34.885C181.565 34.995 181.551 35.1056 181.544 35.2335H169.508V20.688Z" fill="#BE1622"/>
<path d="M161.097 61.0002C157.561 59.346 154.617 57.0742 152.336 53.9692C149.764 50.467 148.62 46.0826 148.51 43.1841H161.097V61.0002Z" fill="#BE1622"/>
<path d="M169.508 43.1758H181.648C181.627 46.7188 180.689 49.9664 178.862 52.9512C176.622 56.5978 173.396 59.0999 169.508 60.8921V43.1758Z" fill="#BE1622"/>
</svg>
