<svg width="37" height="36" viewBox="0 0 37 36" fill="none" xmlns="http://www.w3.org/2000/svg">
<path fill-rule="evenodd" clip-rule="evenodd" d="M29.6209 1.13617L29.9245 1.23921L32.2052 2.0025C33.0837 2.29827 33.8559 2.55588 34.465 2.84212C35.1253 3.15125 35.7306 3.54816 36.1936 4.19504C36.6566 4.84193 36.8406 5.54416 36.9241 6.27119C37 6.94479 37 7.76151 37 8.69463V24.3649C37 25.6969 37 26.8208 36.8975 27.71C36.7913 28.6336 36.5522 29.5457 35.8824 30.2823C35.4859 30.7189 35.004 31.0684 34.4669 31.3089C33.56 31.7135 32.6245 31.6524 31.7194 31.4635C30.8466 31.2803 29.7878 30.9254 28.5317 30.5037L28.4502 30.477C26.325 29.7633 25.5945 29.5419 24.8887 29.5667C24.6068 29.577 24.3265 29.6147 24.0519 29.6793C23.3631 29.8415 22.718 30.2499 20.8528 31.4998L18.2306 33.2591L17.9649 33.4366C15.9498 34.7895 14.5495 35.7284 12.9102 35.9497C11.2727 36.1711 9.67503 35.6349 7.37913 34.862L7.07554 34.7609L4.79482 33.9976C3.91631 33.7018 3.14405 33.4442 2.53497 33.158C1.87467 32.8489 1.26938 32.452 0.80641 31.8032C0.343436 31.1582 0.159385 30.456 0.0758974 29.727C-6.70552e-08 29.0534 0 28.2386 0 27.3055V11.6352C0 10.3013 -1.86265e-07 9.17741 0.102461 8.29008C0.208718 7.36651 0.447795 6.45438 1.11759 5.7178C1.51409 5.28123 1.99599 4.93172 2.53308 4.69118C3.44005 4.28473 4.37738 4.34579 5.28056 4.53662C6.15338 4.7179 7.21215 5.07473 8.46826 5.49645L8.54985 5.52317C10.675 6.23493 11.4055 6.45819 12.1132 6.43339C12.3945 6.42302 12.6741 6.38532 12.9481 6.3208C13.6369 6.1567 14.282 5.74834 16.1472 4.50036L18.7694 2.74098L19.0351 2.56161C21.0502 1.21059 22.4505 0.271745 24.0879 0.0503915C25.7273 -0.170962 27.325 0.36334 29.6209 1.13617ZM25.6154 2.93753V26.7388C26.6324 26.8494 27.7026 27.2082 29.1124 27.6814L29.3495 27.7616C30.71 28.2176 31.6113 28.5172 32.3001 28.6622C32.9755 28.8034 33.2051 28.7386 33.3095 28.6928C33.4887 28.6129 33.6495 28.4966 33.782 28.3512C33.8578 28.2672 33.9907 28.0669 34.0704 27.378C34.1519 26.6758 34.1538 25.7198 34.1538 24.2791V8.76905C34.1538 7.73861 34.1519 7.08981 34.0969 6.59749C34.0438 6.14143 33.9603 5.9716 33.8844 5.86855C33.8104 5.76551 33.6776 5.63003 33.2658 5.4373C32.8181 5.22739 32.2033 5.0213 31.2356 4.695L29.0251 3.95461C27.3421 3.38978 26.344 3.0711 25.6154 2.93753ZM22.7692 27.0822V3.56152C22.1791 3.905 21.4221 4.40304 20.3481 5.12244L17.7258 6.88182L17.5171 7.02112C16.2117 7.8989 15.2383 8.55151 14.2308 8.91789V32.4386C14.8209 32.0951 15.5779 31.5952 16.6519 30.8758L19.2742 29.1183L19.4829 28.979C20.7883 28.1012 21.7617 27.4486 22.7692 27.0822ZM11.3846 33.0645V9.25946C10.3676 9.14878 9.29744 8.79004 7.88764 8.3168L7.65046 8.23666C6.29 7.78059 5.38872 7.481 4.69805 7.33598C4.02446 7.19477 3.79487 7.25774 3.69241 7.30353C3.51236 7.38378 3.35083 7.50075 3.21805 7.64702C3.14215 7.72907 3.00933 7.92943 2.92964 8.6183C2.84805 9.32052 2.84615 10.2785 2.84615 11.7192V27.2292C2.84615 28.2596 2.84805 28.9084 2.90308 29.4007C2.95621 29.8568 3.03969 30.0247 3.11559 30.1297C3.18959 30.2327 3.32241 30.3682 3.73415 30.5609C4.18195 30.7708 4.79672 30.9769 5.76441 31.3032L7.97492 32.0436C9.65795 32.6065 10.6541 32.9271 11.3846 33.0626" fill="#BE1622"/>
</svg>
