<svg width="21" height="20" viewBox="0 0 21 20" fill="none" xmlns="http://www.w3.org/2000/svg">
<path fill-rule="evenodd" clip-rule="evenodd" d="M16.361 0.82923L16.521 0.88323L17.723 1.28323C18.186 1.43823 18.593 1.57323 18.914 1.72323C19.262 1.88523 19.581 2.09323 19.825 2.43223C20.069 2.77123 20.166 3.13923 20.21 3.52023C20.25 3.87323 20.25 4.30123 20.25 4.79023V13.0022C20.25 13.7002 20.25 14.2892 20.196 14.7552C20.14 15.2392 20.014 15.7172 19.661 16.1032C19.452 16.332 19.1981 16.5152 18.915 16.6412C18.437 16.8532 17.944 16.8212 17.467 16.7222C17.007 16.6262 16.449 16.4402 15.787 16.2192L15.744 16.2052C14.624 15.8312 14.239 15.7152 13.867 15.7282C13.7184 15.7336 13.5707 15.7534 13.426 15.7872C13.063 15.8722 12.723 16.0862 11.74 16.7412L10.358 17.6632L10.218 17.7562C9.156 18.4652 8.418 18.9572 7.554 19.0732C6.691 19.1892 5.849 18.9082 4.639 18.5032L4.479 18.4502L3.277 18.0502C2.814 17.8952 2.407 17.7602 2.086 17.6102C1.738 17.4482 1.419 17.2402 1.175 16.9002C0.931 16.5622 0.834 16.1942 0.79 15.8122C0.75 15.4592 0.75 15.0322 0.75 14.5432V6.33123C0.75 5.63223 0.75 5.04323 0.804 4.57823C0.86 4.09423 0.986 3.61623 1.339 3.23023C1.54797 3.00144 1.80194 2.81828 2.085 2.69223C2.563 2.47923 3.057 2.51123 3.533 2.61123C3.993 2.70623 4.551 2.89323 5.213 3.11423L5.256 3.12823C6.376 3.50123 6.761 3.61823 7.134 3.60523C7.28223 3.5998 7.42958 3.58004 7.574 3.54623C7.937 3.46023 8.277 3.24623 9.26 2.59223L10.642 1.67023L10.782 1.57623C11.844 0.86823 12.582 0.37623 13.445 0.26023C14.309 0.14423 15.151 0.42423 16.361 0.82923ZM14.25 1.77323V14.2462C14.786 14.3042 15.35 14.4922 16.093 14.7402L16.218 14.7822C16.935 15.0212 17.41 15.1782 17.773 15.2542C18.129 15.3282 18.25 15.2942 18.305 15.2702C18.3994 15.2284 18.4842 15.1674 18.554 15.0912C18.594 15.0472 18.664 14.9422 18.706 14.5812C18.749 14.2132 18.75 13.7122 18.75 12.9572V4.82923C18.75 4.28923 18.749 3.94923 18.72 3.69123C18.692 3.45223 18.648 3.36323 18.608 3.30923C18.569 3.25523 18.499 3.18423 18.282 3.08323C18.046 2.97323 17.722 2.86523 17.212 2.69423L16.047 2.30623C15.16 2.01023 14.634 1.84323 14.25 1.77323ZM12.75 14.4262V2.10023C12.439 2.28023 12.04 2.54123 11.474 2.91823L10.092 3.84023L9.982 3.91323C9.294 4.37323 8.781 4.71523 8.25 4.90723V17.2332C8.561 17.0532 8.96 16.7912 9.526 16.4142L10.908 15.4932L11.018 15.4202C11.706 14.9602 12.219 14.6182 12.75 14.4262ZM6.75 17.5612V5.08623C6.214 5.02823 5.65 4.84023 4.907 4.59223L4.782 4.55023C4.065 4.31123 3.59 4.15423 3.226 4.07823C2.871 4.00423 2.75 4.03723 2.696 4.06123C2.60111 4.10328 2.51598 4.16458 2.446 4.24123C2.406 4.28423 2.336 4.38923 2.294 4.75023C2.251 5.11823 2.25 5.62023 2.25 6.37523V14.5032C2.25 15.0432 2.251 15.3832 2.28 15.6412C2.308 15.8802 2.352 15.9682 2.392 16.0232C2.431 16.0772 2.501 16.1482 2.718 16.2492C2.954 16.3592 3.278 16.4672 3.788 16.6382L4.953 17.0262C5.84 17.3212 6.365 17.4892 6.75 17.5602" fill="#BCBCBC"/>
</svg>
