<svg width="24" height="21" viewBox="0 0 24 21" fill="none" xmlns="http://www.w3.org/2000/svg">
<path d="M16.8485 2.45752H21.3485C20.8979 6.76413 18.8671 10.7509 15.6485 13.6475C12.4047 16.5644 8.19087 18.1687 3.82853 18.1475H2.67353V13.9325L6.48353 12.6125L7.74353 14.7425L8.62853 16.3325L10.2335 15.4025C13.1072 13.7345 15.5561 11.4243 17.3885 8.65252L18.4835 6.92752L16.6535 5.96752L15.1535 5.18752L16.7885 2.45752M16.7885 0.58252C16.4651 0.584938 16.1476 0.670337 15.8666 0.830544C15.5856 0.990751 15.3504 1.2204 15.1835 1.49752L13.6085 4.22752C13.4749 4.44572 13.3878 4.68913 13.3525 4.94254C13.3173 5.19595 13.3347 5.4539 13.4037 5.70027C13.4727 5.94664 13.5918 6.17614 13.7535 6.3744C13.9152 6.57266 14.116 6.73542 14.3435 6.85252L15.8435 7.63252C14.169 10.1611 11.9302 12.2664 9.30353 13.7825L7.98353 11.6675C7.82904 11.4013 7.61139 11.1772 7.34979 11.015C7.08819 10.8528 6.79068 10.7575 6.48353 10.7375C6.27398 10.7365 6.06585 10.772 5.86853 10.8425L1.98353 12.1625C1.62976 12.3025 1.32694 12.5468 1.11528 12.8629C0.903624 13.1791 0.79315 13.5521 0.798527 13.9325V18.2075C0.798527 18.7048 0.996071 19.1817 1.3477 19.5333C1.69933 19.885 2.17625 20.0825 2.67353 20.0825H3.79853C8.61274 20.0838 13.2573 18.3042 16.838 15.0862C20.4187 11.8683 22.6825 7.43953 23.1935 2.65252C23.2186 2.39088 23.1887 2.12689 23.106 1.87742C23.0232 1.62795 22.8894 1.39849 22.7129 1.20369C22.5364 1.00888 22.3213 0.853025 22.0812 0.746069C21.8411 0.639113 21.5814 0.583411 21.3185 0.58252H16.7885Z" fill="#BCBCBC"/>
</svg>
