<svg width="104" height="100" viewBox="0 0 104 100" fill="none" xmlns="http://www.w3.org/2000/svg">
<g clip-path="url(#clip0_446_1905)">
<g clip-path="url(#clip1_446_1905)">
<path d="M78.4708 42.6471L83.1804 25.9119L76.5116 27.4714C71.5213 19.2556 67.6462 9.33326 57.8908 5.97685C41.4103 0.315038 33.6263 14.5995 26.8561 26.7368L38.549 33.7209C45.2967 27.0872 46.7836 11.9438 57.6993 24.3975C59.1525 26.0588 65.1904 34.5459 64.109 36.2297C63.2604 36.84 61.995 37.7968 60.3127 39.1002L77.7508 45.0897L78.4708 42.6471Z" stroke="black" stroke-width="4" stroke-miterlimit="10"/>
<path d="M60.155 90.3391L59.5467 97.0293L57.0121 94.9499L46.1177 83.3334L44.1266 81.1547L58.0372 69.6808L59.9523 76.3936C67.6574 77.0378 81.8399 76.2919 81.2429 69.4774C80.9387 66.0645 76.5098 58.8236 74.0672 54.2888C76.0723 53.1474 84.4984 46.9544 86.2332 48.0619C86.8978 48.4801 93.0147 60.4139 93.6117 61.9735C97.2841 71.5003 95.1775 80.4733 86.7965 86.3611C79.7897 91.2771 68.4347 91.0623 60.1663 90.3504L60.155 90.3391Z" stroke="#BE1622" stroke-width="4" stroke-miterlimit="10"/>
<path d="M38.932 90.3503C27.8699 90.1582 13.0791 91.5709 7.1087 80.0099C3.08714 72.2235 4.70928 65.3525 8.10001 57.9164C8.93361 56.0969 14.0817 47.5082 14.0817 46.8753C14.0817 46.8753 11.5921 43.7562 8.46048 41.7446L28.8499 36.8965C30.4157 37.3598 33.0179 52.5484 33.4685 55.0798L26.9011 53.3395C24.22 58.052 16.4585 69.8955 21.3137 74.721C23.6343 77.0151 35.6539 74.6306 38.932 77.2751V90.339V90.3503Z" stroke="black" stroke-width="4" stroke-miterlimit="10"/>
</g>
</g>
<defs>
<clipPath id="clip0_446_1905">
<rect width="103.922" height="100" fill="white" transform="translate(0.0391846)"/>
</clipPath>
<clipPath id="clip1_446_1905">
<rect width="95.098" height="99.0196" fill="white" transform="translate(2.49011 2.45093)"/>
</clipPath>
</defs>
</svg>
