<svg width="37" height="36" viewBox="0 0 37 36" fill="none" xmlns="http://www.w3.org/2000/svg">
<path d="M26.507 3.46154H33.9388C33.1946 11.4122 29.8407 18.7724 24.5252 24.12C19.1681 29.5051 12.2088 32.4668 5.00438 32.4277H3.09689V24.6461L9.38913 22.2092L11.47 26.1415L12.9316 29.0769L15.5823 27.36C20.3282 24.2806 24.3725 20.0155 27.3988 14.8985L29.2072 11.7138L26.185 9.94154L23.7077 8.50154L26.4079 3.46154M26.4079 0C25.8737 0.00446431 25.3495 0.162125 24.8853 0.457891C24.4212 0.753657 24.0328 1.17763 23.7572 1.68923L21.1561 6.72923C20.9355 7.13206 20.7916 7.58143 20.7334 8.04926C20.6751 8.51709 20.7039 8.99332 20.8178 9.44816C20.9318 9.903 21.1284 10.3267 21.3955 10.6927C21.6625 11.0587 21.9943 11.3592 22.37 11.5754L24.8472 13.0154C22.0817 17.6836 18.3843 21.5702 14.0464 24.3692L11.8664 20.4646C11.6113 19.9731 11.2518 19.5594 10.8198 19.26C10.3877 18.9605 9.89639 18.7846 9.38913 18.7477C9.04305 18.7457 8.69933 18.8113 8.37345 18.9415L1.95735 21.3785C1.37309 21.6369 0.87298 22.0878 0.523429 22.6715C0.173878 23.2551 -0.00857164 23.9438 0.000309484 24.6461V32.5385C0.000309484 33.4565 0.326555 34.337 0.907275 34.9861C1.488 35.6353 2.27562 36 3.09689 36H4.95483C12.9055 36.0024 20.576 32.7169 26.4896 26.7761C32.4032 20.8353 36.1418 12.6591 36.9858 3.82154C37.0272 3.33851 36.9779 2.85115 36.8412 2.39059C36.7046 1.93003 36.4835 1.5064 36.1921 1.14677C35.9006 0.787132 35.5453 0.499395 35.1488 0.301938C34.7523 0.104481 34.3233 0.00164519 33.8892 0H26.4079Z" fill="#BE1622"/>
</svg>
