<svg width="104" height="100" viewBox="0 0 104 100" fill="none" xmlns="http://www.w3.org/2000/svg">
<path d="M78.0189 44.0345C78.0189 44.0345 78.4255 -3.76765 31.1252 3.98745C29.4052 4.27002 27.7477 4.78808 26.1528 5.49451C20.0233 8.24177 5.8723 16.3579 3.60501 33.2653C3.01083 37.6609 3.2141 42.6531 4.57447 48.3046C4.57447 48.3046 6.63849 66.0597 24.636 74.3642" stroke="black" stroke-width="4" stroke-miterlimit="10" stroke-linecap="round"/>
<path d="M27.5444 4.91357V12.0878L33.0797 16.1224V20.6122L31.735 24.8037H27.5444L25.0269 27.7864L22.3531 31.6797L18.0218 34.0658H13.8469L15.1916 37.0643L17.584 39.9057L18.4753 43.642L16.6771 45.5886L13.1119 42.6059L9.68756 38.744L5.05917 34.0658L3.60498 33.2652" stroke="black" stroke-width="4" stroke-miterlimit="10" stroke-linecap="round"/>
<path d="M41.9927 20.0156L39.2876 17.5038L39.6941 12.9042L38.021 9.98422L40.8668 8.49285L45.6203 8.19458L48.3723 9.46617L50.4051 12.7943L50.1549 15.3531H45.6203L43.5719 19.3563L41.9927 20.0156Z" stroke="black" stroke-width="4" stroke-miterlimit="10" stroke-linecap="round"/>
<path d="M25.0894 49.0266H21.2429L18.6472 52.2448L19.257 56.7189L22.8847 59.372L23.8229 63.0141L24.5422 66.8759L29.6553 71.6326L32.4073 65.7142L35.8786 63.1867L39.8503 60.3296V55.5572L36.8637 52.7315L33.5175 53.171L31.5942 51.7425L29.7647 49.4191L25.0894 49.0266Z" stroke="black" stroke-width="4" stroke-miterlimit="10" stroke-linecap="round"/>
<path d="M67.4018 51.3343L63.7116 53.0612L60.3654 49.3092L57.4883 44.9921L59.0519 37.5824L65.3221 32.1978L69.3251 32.7472L71.092 35.4474L74.8291 35.9497L77.0339 34.9293" stroke="black" stroke-width="4" stroke-miterlimit="10" stroke-linecap="round"/>
<path d="M43.1184 81.9622C43.1184 81.9622 65.5567 84.3484 73.0779 96.7974C73.1404 96.9073 73.2968 96.8602 73.2811 96.7346C72.4837 92.496 68.5589 68.1318 82.9288 60.3296" stroke="#BE1622" stroke-width="4" stroke-miterlimit="10" stroke-linecap="round"/>
<path d="M67.261 73.0926C67.261 73.0926 61.8821 40.5337 98.9874 48.3045C98.9874 48.3045 95.0939 55.1648 95.7663 59.6232C96.4386 64.0816 96.4386 78.8225 77.5654 81.7582" stroke="#BE1622" stroke-width="4" stroke-miterlimit="10" stroke-linecap="round"/>
<path d="M66.9952 79.8274C66.9952 79.8274 63.4144 73.7678 46.7928 74.3643C30.1713 74.9609 31.3597 75.369 31.3597 75.369C31.3597 75.369 31.4378 101.978 63.0078 94.6469" stroke="#BE1622" stroke-width="4" stroke-miterlimit="10" stroke-linecap="round"/>
</svg>
